<?xml version="1.0" standalone="no"?>
<!DOCTYPE svg PUBLIC "-//W3C//DTD SVG 20010904//EN"
 "http://www.w3.org/TR/2001/REC-SVG-20010904/DTD/svg10.dtd">
<svg version="1.0" xmlns="http://www.w3.org/2000/svg"
 width="1024.000000pt" height="1024.000000pt" viewBox="0 0 1024.000000 1024.000000"
 preserveAspectRatio="xMidYMid meet">
<metadata>
Created by potrace 1.16, written by Peter Selinger 2001-2019
</metadata>
<g transform="translate(0.000000,1024.000000) scale(0.100000,-0.100000)"
fill="#000000" stroke="none">
<path d="M0 10065 c1 -96 4 -175 6 -175 2 0 9 11 14 25 5 14 15 25 22 24 10 0
10 -2 0 -6 -6 -2 -12 -10 -12 -18 0 -7 -7 -18 -15 -25 -11 -9 -14 -36 -13
-121 2 -99 4 -109 21 -109 10 0 15 -5 12 -10 -4 -6 -10 -8 -15 -5 -9 6 -23
-25 -15 -34 3 -3 10 1 15 9 7 11 11 11 24 1 14 -11 16 -11 16 5 0 13 3 15 11
7 9 -9 8 -16 -4 -28 -16 -16 -13 -50 4 -39 5 3 8 0 7 -7 -2 -6 4 -14 12 -17
12 -4 11 0 -2 20 -19 28 -15 39 10 31 15 -4 15 -3 2 6 -13 9 -13 11 3 11 9 0
17 5 17 11 0 5 -5 7 -10 4 -9 -6 -14 8 -11 28 1 5 -4 5 -10 1 -9 -5 -10 -2 -6
12 7 18 6 18 -8 -1 -14 -17 -17 -18 -25 -5 -5 8 -10 20 -10 25 0 6 4 3 10 -5
8 -12 10 -12 16 3 3 9 10 14 15 11 5 -3 9 0 9 5 0 6 -5 11 -11 11 -5 0 -8 4
-4 10 11 18 35 -2 31 -26 -3 -13 -1 -26 3 -28 4 -3 8 0 9 7 0 7 2 29 4 50 4
29 1 37 -9 32 -8 -2 -11 -1 -8 4 6 12 45 10 45 -1 0 -4 -5 -8 -11 -8 -6 0 -9
-6 -6 -12 2 -7 15 -13 28 -13 19 -1 24 -5 22 -25 -2 -20 0 -18 12 10 9 19 14
26 12 15 -3 -17 2 -20 38 -22 40 -1 42 0 38 25 -3 24 -2 24 6 7 5 -11 10 -14
10 -6 1 7 7 11 15 8 7 -3 22 0 32 8 27 18 34 18 48 -1 12 -16 14 -15 29 7 11
15 17 18 17 9 0 -9 -9 -21 -20 -28 -12 -7 -18 -18 -15 -25 4 -7 -5 1 -18 17
l-24 28 -16 -22 c-9 -14 -20 -19 -28 -15 -8 6 -10 4 -5 -4 5 -7 14 -10 22 -7
8 3 14 1 14 -3 0 -15 -33 -22 -42 -9 -4 7 -8 9 -8 3 0 -20 17 -38 24 -26 4 6
11 9 16 6 8 -5 25 24 21 38 -1 4 9 2 21 -5 13 -7 30 -12 40 -13 25 0 35 -15
10 -15 -23 0 -49 -35 -33 -45 13 -7 24 12 15 27 -5 7 -2 9 8 5 9 -3 21 0 27 6
13 13 15 41 3 33 -4 -2 -14 -1 -22 5 -12 7 -11 9 4 9 10 0 24 7 31 16 12 17
12 -28 0 -136 -2 -25 -7 -74 -9 -110 -2 -36 -9 -135 -15 -220 -6 -85 -13 -193
-17 -240 -3 -47 -7 -92 -9 -100 -2 -8 -7 -40 -9 -70 -3 -30 -8 -80 -11 -110
-8 -71 7 -56 20 21 6 33 13 59 17 57 4 -2 13 5 20 15 12 16 17 17 46 4 32 -13
36 -32 4 -20 -10 4 -7 -2 7 -16 12 -12 27 -19 34 -14 7 4 5 -2 -3 -12 -9 -11
-11 -20 -4 -22 5 -2 9 -16 8 -33 -1 -17 4 -31 12 -34 17 -6 17 -2 3 27 -9 20
-9 21 4 4 22 -26 31 -88 16 -98 -7 -4 -16 -6 -19 -4 -4 2 -7 -2 -7 -10 0 -10
6 -11 24 -4 33 12 37 11 23 -6 -8 -10 -9 -19 -3 -27 14 -19 17 -102 4 -93 -11
6 -32 -34 -25 -47 9 -14 -37 -29 -91 -30 -52 -2 -70 -10 -42 -21 9 -4 9 -6 -1
-6 -9 -1 -10 -6 -3 -20 9 -17 8 -18 -12 -13 -20 5 -20 4 -8 -11 7 -9 20 -17
27 -17 19 0 18 -15 -2 -34 -8 -9 -11 -16 -5 -16 6 0 7 -7 4 -17 -5 -12 -3 -14
7 -8 10 6 12 4 6 -11 -5 -14 -4 -16 4 -8 9 9 9 17 1 33 -10 17 -9 20 4 15 8
-4 15 -1 15 5 0 6 -4 11 -8 11 -4 0 -7 12 -6 28 4 46 5 48 14 25 7 -16 14 -21
26 -16 14 5 16 2 12 -15 -4 -16 -2 -19 11 -15 14 4 15 3 0 -9 -11 -9 -13 -21
-8 -41 4 -15 3 -25 -2 -22 -4 3 -14 -3 -21 -14 -8 -13 -16 -17 -23 -11 -7 6
-11 2 -11 -10 0 -10 5 -16 10 -13 5 4 7 -3 4 -15 -6 -20 2 -27 25 -23 4 1 3
-7 -2 -18 -11 -19 0 -109 16 -134 4 -6 7 -27 6 -47 0 -19 4 -40 9 -47 5 -7 7
-16 5 -21 -3 -4 -1 -14 5 -22 8 -13 9 -12 5 1 -3 10 6 28 25 45 20 19 29 23
25 12 -3 -10 -1 -20 4 -24 6 -3 9 -17 6 -30 -2 -14 0 -27 5 -30 5 -3 4 -12 -3
-20 -7 -8 -7 -14 -1 -14 5 0 8 -13 7 -30 -2 -29 2 -33 38 -33 12 0 17 -8 17
-26 0 -20 2 -23 10 -11 5 8 10 11 10 5 -1 -5 -7 -19 -15 -29 -8 -11 -15 -29
-15 -40 0 -18 -2 -19 -11 -6 -8 12 -9 11 -5 -5 8 -32 -18 -58 -51 -51 -15 3
-35 2 -43 -4 -13 -9 -13 -10 0 -10 13 0 13 -1 0 -10 -13 -9 -13 -11 0 -20 10
-6 11 -10 3 -10 -7 0 -13 -4 -13 -9 0 -5 10 -7 23 -5 19 4 18 3 -4 -8 -22 -11
-24 -15 -13 -26 7 -6 11 -19 8 -27 -4 -10 0 -15 11 -15 9 0 14 4 11 8 -2 4 -1
14 5 22 6 11 9 12 9 2 0 -7 4 -10 10 -7 5 3 10 1 10 -6 0 -6 8 -17 17 -24 9
-7 18 -21 19 -31 2 -11 5 -31 7 -46 3 -17 0 -25 -6 -21 -7 4 -8 -1 -2 -13 4
-10 8 -28 10 -39 1 -11 7 -20 13 -20 15 0 43 -40 34 -50 -7 -7 -8 -12 -11 -40
0 -8 -8 -15 -17 -15 -14 0 -14 -1 0 -16 18 -17 21 -28 6 -19 -5 3 -10 2 -10
-4 0 -5 5 -13 10 -16 16 -10 12 -28 -4 -22 -10 4 -13 1 -9 -8 3 -8 10 -12 17
-8 6 3 2 -3 -8 -15 -11 -12 -14 -22 -8 -22 7 0 12 -5 12 -11 0 -5 -4 -7 -10
-4 -16 10 -12 -7 7 -27 13 -14 13 -18 2 -19 -8 0 -6 -4 6 -9 19 -8 19 -9 -2
-9 -15 -1 -23 -7 -22 -18 0 -11 3 -13 6 -5 6 16 21 15 39 -3 14 -14 11 -20
-10 -16 -5 1 -6 -5 -3 -12 3 -8 0 -20 -6 -26 -14 -14 -40 -15 -32 -1 4 6 11 8
16 5 5 -4 9 -1 9 6 0 6 -8 9 -20 6 -16 -4 -19 -1 -16 24 2 16 -1 29 -5 29 -5
0 -9 -4 -9 -10 0 -5 -7 -7 -16 -3 -8 3 -13 11 -10 18 2 7 -3 12 -12 11 -11 -1
-18 8 -20 22 -5 31 -26 23 -29 -11 -1 -19 2 -24 13 -20 8 3 14 0 14 -7 0 -6 4
-8 10 -5 6 3 7 -1 4 -9 -3 -9 -9 -16 -13 -16 -3 0 -7 -14 -8 -30 -1 -17 2 -30
8 -30 5 0 2 -11 -7 -25 -9 -14 -21 -22 -28 -18 -6 3 0 -6 13 -20 19 -21 21
-27 9 -27 -9 0 -19 -7 -22 -16 -3 -8 -2 -12 4 -9 6 3 10 0 10 -8 0 -20 -25
-28 -39 -14 -6 6 -11 19 -11 28 0 10 -4 20 -9 23 -5 4 -8 -6 -6 -20 1 -14 9
-30 16 -35 13 -8 6 -13 -13 -10 -5 0 -8 -4 -8 -9 0 -6 5 -10 11 -10 5 0 7 -5
3 -11 -4 -8 -9 -7 -15 2 -6 10 -9 5 -9 -14 0 -16 -7 -35 -15 -43 -9 -9 -15
-11 -15 -4 0 6 -5 8 -11 4 -15 -9 10 -24 29 -17 12 5 12 2 2 -17 -10 -18 -9
-21 1 -15 9 6 11 3 6 -8 -4 -11 -1 -17 8 -17 8 0 1 -13 -19 -32 -31 -31 -32
-34 -15 -50 16 -15 18 -15 31 3 10 14 16 16 28 8 13 -9 13 -10 -2 -6 -19 7
-34 -21 -19 -36 5 -5 7 -15 4 -22 -7 -19 21 -13 42 9 18 17 19 17 36 -5 12
-16 14 -30 9 -51 -5 -15 -6 -28 -3 -28 3 0 -2 -10 -13 -22 -10 -13 -15 -20
-10 -16 13 11 46 -11 45 -30 0 -14 -2 -14 -9 3 -7 17 -9 16 -10 -10 l-2 -30
-8 30 -8 30 -1 -32 c0 -18 4 -33 9 -33 6 0 10 -14 10 -31 0 -21 4 -30 13 -26
8 3 12 -7 13 -29 0 -23 -4 -34 -14 -34 -8 0 -12 -6 -9 -14 3 -8 -1 -17 -10
-20 -10 -4 -14 -15 -11 -31 3 -13 1 -26 -5 -28 -5 -1 -2 -11 7 -20 16 -16 14
-22 -8 -18 -5 1 -6 -5 -3 -13 4 -9 -7 -27 -25 -45 -26 -25 -31 -39 -32 -78 -1
-27 -5 -53 -9 -60 -4 -7 1 -14 13 -18 11 -3 20 -11 20 -17 0 -7 -5 -7 -14 1
-10 9 -16 8 -26 -4 -8 -9 -9 -15 -4 -14 5 1 18 1 29 0 16 -1 17 -3 6 -10 -8
-5 -21 -7 -30 -4 -9 3 -6 -2 6 -11 13 -10 23 -23 23 -31 0 -8 6 -12 13 -9 9 3
13 -4 11 -26 -2 -30 9 -40 20 -17 3 6 4 0 2 -16 -2 -15 1 -30 6 -33 4 -3 5
-10 2 -16 -4 -7 -2 -8 4 -4 6 4 9 13 5 21 -4 11 -1 13 11 9 9 -3 13 -11 10
-16 -4 -6 0 -14 7 -19 8 -5 9 -9 4 -9 -6 0 -10 -18 -8 -40 1 -33 0 -38 -12
-27 -7 6 -10 17 -7 22 3 6 1 6 -4 2 -5 -5 -9 -14 -9 -20 0 -7 -9 -11 -19 -9
-11 2 -15 -1 -11 -7 3 -7 0 -8 -9 -5 -9 3 -16 10 -16 15 0 4 -8 5 -18 2 -16
-7 -16 -6 1 11 21 21 22 27 2 20 -8 -4 -15 -2 -15 3 0 5 -13 17 -30 26 -28 17
-29 17 -23 1 5 -13 3 -15 -7 -9 -7 5 -11 4 -8 -1 3 -5 -3 -17 -13 -26 -13 -12
-19 -13 -23 -5 -3 7 -5 -5 -3 -25 2 -20 -1 -34 -5 -32 -9 6 -11 -10 -2 -19 3
-3 17 -1 31 4 21 8 24 7 19 -6 -3 -8 -1 -15 4 -15 6 0 10 5 10 10 0 6 5 10 11
10 5 0 7 -4 4 -10 -3 -5 -1 -10 4 -10 6 0 11 -4 11 -9 0 -5 -10 -7 -21 -4 -20
5 -21 3 -15 -21 5 -21 4 -26 -6 -20 -9 6 -9 3 1 -9 12 -16 12 -17 -5 -11 -15
6 -17 4 -7 -6 6 -7 9 -18 7 -25 -3 -7 -1 -16 5 -20 17 -10 13 -28 -5 -21 -9 3
-12 2 -9 -4 4 -6 8 -25 10 -43 4 -28 3 -30 -9 -14 -16 21 -30 23 -23 3 7 -19
-18 -40 -38 -32 -8 3 -15 1 -15 -4 0 -5 8 -11 18 -13 14 -4 14 -5 1 -6 -13 -1
-15 -9 -9 -47 5 -34 4 -47 -6 -51 -8 -3 -11 -9 -8 -14 3 -5 10 -6 16 -3 6 4 8
-1 3 -15 -4 -12 -2 -21 4 -21 11 0 15 15 11 35 -9 41 -9 55 -2 55 16 0 22 -13
12 -25 -8 -9 -4 -21 13 -41 33 -40 40 -66 23 -90 -16 -21 -66 -27 -66 -8 0 19
17 26 24 9 3 -8 12 -12 20 -9 16 6 29 44 15 44 -4 0 -6 6 -3 14 4 10 -2 12
-21 9 -14 -3 -28 -9 -31 -14 -3 -5 3 -6 13 -2 14 5 12 0 -7 -21 -14 -16 -32
-25 -42 -23 -14 4 -15 2 -5 -14 6 -10 18 -20 27 -23 8 -2 5 -4 -8 -5 -19 -1
-21 -3 -10 -15 7 -8 17 -11 22 -8 5 3 6 0 2 -6 -3 -6 1 -18 10 -26 8 -9 12
-16 7 -16 -5 0 -14 5 -20 11 -17 17 -39 4 -51 -31 -6 -17 -7 -28 -2 -25 5 3 8
-4 7 -15 -1 -11 -9 -23 -19 -26 -24 -7 -23 -21 2 -29 11 -3 20 -13 20 -21 0
-8 -5 -12 -10 -9 -7 4 -8 -3 -4 -22 9 -37 11 -38 28 -24 8 7 19 10 25 7 5 -4
16 1 24 9 19 18 60 20 55 3 -3 -7 0 -18 6 -24 6 -6 20 -23 31 -38 11 -16 26
-34 33 -42 7 -8 10 -14 6 -14 -3 0 -1 -6 5 -13 6 -8 7 -18 3 -22 -4 -5 -2 -5
4 -2 6 3 17 -5 24 -18 7 -14 17 -25 22 -25 4 0 8 -6 8 -14 0 -8 3 -16 7 -18
11 -5 43 -64 43 -80 0 -7 6 -25 14 -39 32 -63 29 -109 -8 -109 -17 0 -18 -2
-6 -10 10 -6 20 -4 31 6 11 10 19 12 24 5 8 -14 -3 -31 -21 -31 -8 0 -14 -4
-14 -10 0 -5 5 -10 10 -10 6 0 10 -6 10 -12 0 -7 -13 3 -29 22 -16 19 -26 41
-23 49 4 10 1 13 -11 8 -9 -3 -17 -2 -17 3 0 6 8 10 17 10 14 0 13 3 -5 16
-12 8 -20 19 -17 24 8 13 -39 20 -47 7 -5 -7 -6 0 -2 15 8 34 1 36 -18 6 -24
-36 -33 -72 -17 -64 8 4 6 1 -3 -7 -10 -8 -15 -17 -11 -20 3 -4 1 -7 -6 -7 -7
0 -9 -4 -6 -10 3 -5 0 -20 -7 -32 -7 -13 -13 -32 -14 -43 -4 -36 -15 -77 -28
-104 -7 -14 -11 -32 -8 -40 2 -8 0 -11 -5 -8 -5 3 -15 2 -23 -4 -8 -5 -10 -9
-5 -9 6 0 10 -10 10 -23 0 -13 -6 -24 -12 -24 -7 0 -13 9 -13 19 0 11 -4 17
-8 14 -5 -3 -9 1 -9 9 0 8 4 15 9 15 4 0 8 4 8 10 0 5 -8 7 -18 4 -13 -4 -11
-1 6 14 13 12 18 23 12 27 -5 3 -10 1 -10 -4 0 -6 -5 -11 -11 -11 -6 0 -9 7
-5 15 3 9 0 15 -8 15 -16 0 -29 27 -20 41 3 5 3 9 0 9 -3 0 -12 -12 -21 -27
-13 -23 -15 -24 -10 -6 5 17 3 21 -8 18 -11 -5 -15 -30 -8 -53 1 -1 10 2 20 8
16 8 19 7 17 -7 -2 -9 -10 -19 -18 -22 -14 -5 -14 -8 -2 -19 10 -10 14 -10 14
-1 0 7 3 9 6 6 4 -4 1 -13 -6 -22 -9 -11 -9 -15 -1 -15 7 0 9 -4 6 -10 -3 -5
-1 -10 5 -10 7 0 10 -7 6 -15 -3 -8 0 -15 7 -16 7 -1 1 -4 -13 -8 -17 -5 -24
-14 -23 -27 1 -10 0 -13 -3 -6 -3 6 -13 12 -22 12 -13 0 -11 4 6 16 12 8 22
20 22 26 0 7 -6 4 -13 -6 -13 -17 -14 -17 -30 8 -16 24 -16 25 0 19 11 -4 6 4
-10 20 -16 14 -26 31 -22 36 4 7 0 8 -11 4 -11 -4 -15 -3 -10 5 3 6 -2 15 -11
21 -12 7 -13 10 -4 11 23 0 -8 30 -33 30 -15 0 -17 3 -7 9 10 7 10 12 -5 30
-10 11 -24 21 -31 21 -6 0 -15 4 -18 10 -3 6 1 7 9 4 9 -3 16 -1 16 6 0 6 -4
9 -10 5 -5 -3 -18 3 -30 15 -11 11 -22 20 -24 20 -2 0 -5 -36 -5 -80 -1 -65 2
-81 17 -89 9 -6 14 -11 9 -11 -4 0 -1 -15 6 -32 8 -18 12 -39 10 -45 -3 -7 6
-18 19 -24 13 -6 34 -34 48 -65 14 -31 30 -60 37 -65 6 -6 15 -24 18 -40 4
-16 10 -29 15 -29 4 0 7 -11 6 -25 -2 -13 1 -22 6 -19 5 3 8 0 7 -7 -1 -8 1
-22 6 -32 4 -9 5 -28 3 -42 -3 -13 0 -26 6 -29 6 -2 7 -5 1 -5 -5 0 -19 7 -30
15 -20 15 -20 15 -1 30 11 8 15 14 9 14 -7 0 -15 -5 -18 -10 -11 -18 -36 10
-30 31 4 11 2 19 -4 19 -6 0 -7 7 -4 17 5 12 3 14 -7 8 -10 -6 -12 -4 -7 8 4
10 -1 18 -13 22 -11 4 -17 12 -13 21 3 7 -1 14 -8 14 -7 0 -10 3 -6 6 6 6 -1
16 -33 52 -8 9 -15 23 -15 30 0 6 -3 12 -7 12 -5 0 -12 0 -18 0 -6 0 -10 -33
-10 -78 0 -61 4 -81 18 -93 9 -9 24 -26 32 -39 23 -35 41 -51 50 -45 5 3 7 -4
5 -15 -2 -12 1 -20 10 -20 7 0 16 -14 20 -31 7 -29 8 -30 26 -13 10 9 19 12
19 6 0 -6 -6 -12 -13 -15 -16 -5 8 -53 41 -83 15 -14 21 -27 16 -40 -4 -14 -3
-15 4 -5 6 8 12 9 16 3 3 -6 2 -14 -4 -17 -8 -5 -8 -11 0 -20 8 -10 7 -15 -2
-19 -10 -5 -10 -7 0 -12 17 -8 15 -25 -3 -18 -8 4 -15 1 -15 -5 0 -6 5 -11 12
-11 9 0 9 -3 0 -12 -8 -8 -15 -8 -27 2 -8 7 -19 10 -22 6 -4 -4 -1 -11 7 -17
10 -6 4 -7 -20 -4 -29 5 -31 4 -13 -4 13 -6 23 -13 23 -16 0 -4 -6 -3 -13 1
-8 6 -8 3 2 -9 7 -9 11 -23 8 -31 -3 -7 -1 -18 5 -24 17 -17 2 -45 -18 -34
-18 10 -54 5 -54 -8 0 -10 31 -22 38 -15 3 3 0 5 -7 5 -7 0 -10 4 -6 10 3 5
12 7 19 4 17 -6 27 -62 13 -71 -6 -4 -7 -1 -2 7 6 9 4 11 -4 5 -7 -4 -11 -16
-8 -26 3 -11 1 -19 -4 -19 -5 0 -9 -7 -9 -16 0 -8 4 -12 10 -9 6 3 7 -1 4 -10
-5 -12 -9 -13 -20 -4 -11 9 -19 8 -34 -6 -11 -10 -23 -15 -27 -12 -3 4 -1 7 5
7 7 0 12 5 12 11 0 6 -6 9 -14 6 -10 -4 -12 0 -9 14 5 19 6 19 20 2 11 -13 14
-14 11 -3 -5 17 27 52 37 42 3 -4 3 1 -1 11 -3 10 -15 22 -26 28 -12 7 -17 17
-13 29 6 19 -8 22 -32 7 -8 -5 -11 -3 -8 5 4 10 -3 14 -22 13 -20 0 -29 -6
-31 -20 -3 -16 -1 -18 9 -8 24 23 33 13 10 -11 -19 -20 -22 -33 -20 -97 1 -41
7 -77 13 -82 8 -5 6 -10 -4 -17 -11 -7 -12 -10 -2 -10 8 0 12 -6 9 -12 -2 -7
3 -19 12 -26 9 -8 11 -11 6 -8 -6 2 -17 1 -25 -5 -13 -7 -12 -9 1 -9 19 0 32
-26 22 -43 -4 -7 1 -6 10 2 16 12 17 12 11 -5 -12 -32 -15 -34 -34 -24 -19 10
-19 -6 -20 -674 0 -499 3 -686 11 -692 8 -5 7 -9 -2 -15 -8 -5 -10 -9 -4 -9 6
0 16 4 24 9 11 7 10 11 -5 19 -16 9 -17 13 -5 24 8 8 11 8 7 1 -4 -7 2 -13 16
-15 15 -2 22 -9 22 -20 -2 -23 12 -14 19 12 3 13 0 20 -8 20 -8 0 -17 5 -20
11 -4 6 -1 10 6 8 27 -3 39 1 39 14 0 7 6 22 14 33 10 12 7 -2 -6 -41 -15 -42
-21 -87 -22 -150 -1 -85 1 -94 35 -160 31 -59 38 -84 44 -158 3 -48 12 -108
20 -134 8 -26 12 -49 10 -52 -3 -2 -5 2 -5 10 0 9 -3 10 -8 3 -4 -6 -17 -16
-29 -23 -19 -10 -22 -9 -17 4 3 8 10 13 14 10 14 -8 29 20 23 43 -6 25 -4 25
-37 12 -18 -6 -24 -15 -21 -30 2 -11 0 -18 -6 -15 -5 4 -7 11 -4 16 4 5 1 9
-6 9 -8 0 -8 5 2 18 11 14 11 15 -1 5 -18 -17 -43 -17 -34 0 4 6 -4 1 -16 -12
-15 -15 -25 -20 -28 -13 -2 7 -8 12 -13 12 -5 0 -9 -158 -9 -385 l0 -385 741
0 741 0 -109 78 c-263 189 -483 350 -547 401 -88 69 -222 203 -260 258 l-28
42 25 53 c70 152 220 286 404 359 135 54 341 51 458 -6 54 -27 57 -31 265
-335 143 -210 215 -307 419 -565 96 -121 184 -235 195 -252 l21 -33 3958 0
3957 0 0 250 c0 230 -5 273 -25 240 -4 -6 -12 -7 -18 -3 -24 15 -47 13 -47 -4
0 -15 -2 -14 -16 3 -8 10 -12 13 -8 5 5 -10 3 -13 -8 -8 -9 3 -20 1 -26 -5 -6
-6 -8 0 -6 19 4 26 4 26 -5 6 -6 -13 -13 -23 -16 -23 -4 0 -4 4 -1 9 4 5 -10
7 -31 5 -88 -10 -98 -9 -97 9 2 14 -1 15 -12 6 -8 -6 -11 -15 -8 -20 3 -5 0
-9 -5 -9 -6 0 -11 6 -11 13 0 7 -12 14 -26 15 -24 2 -25 0 -13 -15 13 -15 11
-15 -13 1 -17 11 -28 13 -33 7 -3 -6 -11 -11 -16 -11 -6 0 -8 4 -5 8 3 5 -1 9
-9 9 -8 0 -15 -3 -15 -7 0 -4 -7 -7 -15 -7 -10 0 -12 4 -5 12 7 8 -8 12 -53
13 -79 2 -87 4 -87 13 0 4 -15 7 -32 7 -18 -1 -48 1 -65 4 -18 3 -33 2 -33 -1
0 -4 -10 -8 -22 -8 -17 -2 -19 0 -8 7 23 14 5 22 -25 10 -20 -8 -31 -7 -42 1
-8 7 -13 8 -12 3 7 -38 -7 -15 -38 61 -49 123 -48 160 5 257 73 132 87 212 56
331 -19 74 -50 137 -119 242 -125 191 -125 191 -133 373 l-7 142 45 0 c25 0
61 5 80 11 44 14 150 21 150 9 0 -4 15 -7 33 -6 24 1 34 -3 33 -13 -1 -8 6
-16 14 -18 11 -3 11 -2 3 4 -9 6 -7 12 7 21 12 7 20 8 20 2 0 -5 3 -10 8 -10
4 0 7 14 7 30 0 19 -5 30 -14 30 -11 0 -10 4 3 13 17 12 17 14 3 20 -12 4 -19
-1 -23 -18 -3 -13 -3 -29 1 -34 3 -7 -3 -11 -17 -12 -13 -1 -30 -2 -38 -3 -8
-1 -26 4 -39 12 -18 11 -29 12 -48 3 -40 -18 -37 -13 21 40 100 92 155 243
141 390 -7 80 -28 162 -49 195 -19 29 -19 29 30 8 60 -25 185 -15 256 19 61
30 135 103 166 164 23 44 49 159 39 169 -4 4 -25 -14 -48 -40 -78 -89 -192
-119 -279 -74 -121 63 -169 238 -94 352 190 292 239 408 251 597 15 224 -69
413 -296 667 -55 62 -117 133 -137 158 -36 43 -36 45 -19 64 15 16 21 18 34 7
14 -10 14 -10 3 5 -11 14 -10 22 10 55 32 51 63 126 79 193 20 82 18 281 -5
355 -44 146 -103 255 -191 349 l-45 48 25 92 c37 138 48 272 42 506 -7 224
-17 329 -48 490 -53 271 -117 462 -230 690 -126 253 -253 423 -433 583 -226
199 -487 326 -751 365 -101 14 -118 14 -190 0 -79 -15 -80 -15 -110 7 -51 39
-154 85 -234 107 -121 32 -346 30 -516 -6 -271 -56 -560 -176 -787 -324 l-106
-70 -32 76 c-17 43 -62 136 -99 207 -288 551 -653 917 -1037 1038 -221 70
-473 58 -636 -30 l-47 -26 -64 59 c-117 107 -226 157 -408 191 -329 60 -747
-31 -1224 -267 -192 -96 -343 -186 -483 -290 -48 -36 -91 -67 -95 -69 -10 -4
-7 201 4 354 14 189 39 362 85 593 24 123 44 228 44 233 0 5 -370 9 -950 9
l-951 0 1 -175z m655 -1615 c-3 -5 -1 -10 5 -10 6 0 9 -4 6 -9 -7 -11 22 -23
36 -15 6 4 8 -2 3 -17 -4 -17 -3 -20 3 -10 5 7 15 10 21 7 6 -4 11 0 11 8 0 9
5 16 12 16 6 0 8 -3 5 -7 -9 -9 23 -44 34 -37 5 3 9 0 9 -5 0 -6 -4 -11 -10
-11 -5 0 -10 -4 -10 -10 0 -5 8 -7 18 -4 16 5 16 5 0 -9 -18 -15 -26 -43 -9
-32 5 3 12 1 16 -5 3 -5 0 -10 -8 -10 -8 0 -17 -7 -20 -14 -4 -11 -1 -13 11
-9 15 6 15 5 3 -10 -7 -9 -10 -17 -6 -17 4 0 2 -7 -5 -15 -7 -8 -17 -15 -23
-15 -6 0 -7 3 -4 6 9 10 -12 46 -24 39 -5 -4 -9 -1 -9 4 0 6 5 11 10 11 6 0
10 5 10 12 0 6 -9 3 -20 -7 -19 -18 -20 -17 -20 3 0 16 -6 22 -21 22 -11 0
-18 4 -15 8 6 10 -4 24 -29 38 -11 7 -19 19 -19 28 1 9 -3 16 -8 16 -6 0 -8 7
-5 15 4 8 1 17 -5 21 -6 4 4 12 23 19 19 7 35 13 37 14 2 0 0 -3 -3 -9z m3148
-165 c31 -8 82 -28 113 -45 61 -32 78 -32 49 0 -10 11 -16 20 -13 20 19 0 106
-46 119 -62 15 -20 17 -20 93 -3 97 22 194 17 294 -15 50 -16 72 -28 72 -39 0
-9 5 -61 11 -116 6 -55 14 -249 17 -431 l7 -332 -85 -5 c-106 -6 -189 -36
-247 -90 -48 -44 -59 -84 -20 -73 39 12 240 18 296 9 l55 -8 12 -85 c7 -47 18
-105 24 -130 6 -25 16 -65 21 -90 5 -25 14 -53 20 -63 9 -16 5 -17 -58 -10
-114 13 -272 8 -348 -11 -145 -38 -231 -106 -285 -228 l-20 -47 -48 25 c-88
45 -229 65 -321 43 -24 -5 -46 -8 -48 -5 -3 2 -12 35 -20 73 -33 146 -94 216
-258 293 -113 54 -186 75 -330 99 l-99 17 49 29 c28 15 106 84 174 152 69 68
132 123 140 123 43 -1 41 -15 -17 -131 -32 -62 -66 -127 -77 -144 -15 -25 -10
-22 29 15 41 39 96 113 149 202 l17 27 59 -22 c40 -14 64 -18 70 -12 14 14
-19 82 -56 119 l-30 30 39 95 c21 53 77 213 124 356 83 255 149 438 167 462 7
10 27 15 87 21 9 1 41 -5 73 -13z m-848 -621 c-14 -66 -29 -133 -32 -151 -5
-31 -6 -31 -72 -35 -36 -2 -67 -3 -68 -3 -3 1 99 159 109 170 6 6 3 -4 -6 -22
-12 -25 -13 -33 -3 -39 6 -4 9 -4 5 1 -9 10 9 45 23 45 6 0 9 -7 6 -15 -4 -8
-1 -17 6 -21 7 -4 9 -4 5 1 -4 4 -3 17 3 28 8 14 8 18 0 13 -15 -9 -14 -5 5
32 8 18 13 36 10 41 -6 9 24 84 31 77 2 -2 -8 -57 -22 -122z m3845 -288 c36
-8 85 -23 110 -35 50 -22 61 -20 37 7 -10 10 -17 22 -17 25 0 9 119 -50 140
-69 13 -11 26 -11 79 2 59 13 95 13 57 -2 -27 -11 -7 -24 37 -24 66 0 216 -47
259 -81 13 -11 20 -42 28 -124 26 -255 42 -403 50 -443 7 -42 7 -43 -14 -38
-114 33 -163 39 -238 28 -87 -13 -166 -48 -198 -89 -20 -26 -20 -28 -3 -40 9
-8 24 -11 33 -7 109 42 242 42 378 -1 65 -20 82 -30 82 -45 0 -37 69 -227 115
-321 81 -161 149 -256 264 -370 l108 -105 13 -85 c8 -46 14 -152 14 -234 1
-149 1 -151 -30 -213 -29 -58 -29 -62 -10 -56 108 32 250 183 339 360 l36 72
48 -15 c26 -8 57 -19 68 -24 16 -7 15 -7 -6 -3 -30 6 -88 -23 -137 -69 -33
-31 -69 -87 -56 -87 4 0 1 -7 -6 -15 -9 -11 -10 -15 0 -15 8 0 9 -10 4 -32 -3
-18 -6 -57 -6 -87 1 -90 -16 -115 -112 -165 -62 -33 -74 -51 -50 -77 35 -39
124 -49 201 -23 77 26 75 35 -4 28 -74 -7 -133 6 -133 30 1 6 32 31 71 55 39
24 74 53 78 65 4 11 6 66 4 121 -3 107 9 170 33 161 8 -3 13 0 11 6 -1 6 16
21 37 34 62 35 114 17 163 -58 25 -37 28 -50 27 -123 -1 -45 -7 -92 -14 -104
-6 -13 -9 -25 -7 -28 10 -9 45 72 55 126 15 84 -23 194 -81 237 -21 15 -18 15
48 9 39 -4 78 -11 88 -17 31 -16 50 -77 49 -153 -3 -191 -118 -384 -291 -489
-78 -48 -201 -87 -292 -93 -85 -6 -189 4 -189 17 0 5 8 7 18 4 10 -4 13 -2 7
3 -5 4 -13 12 -17 16 -3 5 -60 -39 -126 -97 -281 -248 -510 -368 -917 -480
-355 -98 -473 -99 -670 -7 -210 98 -658 431 -782 581 -67 81 -126 200 -149
305 -19 84 -19 73 -15 702 l1 272 79 55 c79 55 218 168 298 242 52 49 191 217
239 289 22 33 44 55 55 55 39 0 126 -24 171 -46 26 -13 52 -24 58 -24 22 0 9
53 -19 79 -28 26 -127 71 -157 71 -19 0 -19 0 27 93 23 45 75 162 115 261 76
185 108 245 146 270 62 40 253 56 368 32z m-3955 -107 c-8 -22 -44 -98 -80
-168 l-65 -127 -108 -11 c-103 -11 -225 -43 -287 -75 -17 -9 -65 -43 -107 -76
-67 -51 -87 -62 -141 -71 -89 -15 -87 -16 -87 29 0 29 5 42 20 50 72 38 251
226 364 380 60 81 63 84 39 35 -11 -22 -39 -80 -62 -128 -26 -55 -46 -85 -53
-81 -7 4 -8 3 -4 -4 9 -15 -12 -54 -24 -47 -6 3 -7 0 -4 -8 3 -8 -17 -41 -47
-77 l-51 -62 41 24 c121 69 313 238 427 376 59 72 63 74 206 80 l37 2 -14 -41z
m2015 -329 c33 -128 100 -283 156 -356 41 -53 44 -67 7 -32 -44 41 -137 89
-231 118 -48 15 -86 33 -85 39 2 6 6 49 9 95 4 47 10 84 13 82 4 -3 5 13 3 35
-2 22 -1 60 2 84 l7 44 52 -22 c50 -23 51 -24 67 -87z m-1850 -89 c221 -64
341 -142 377 -245 27 -77 24 -275 -6 -381 -52 -186 -150 -328 -263 -380 -155
-71 -457 -54 -655 35 -119 54 -225 183 -247 300 -28 145 -25 379 5 480 19 64
97 140 174 169 110 42 178 50 365 47 143 -3 189 -7 250 -25z m-1479 -178 c34
-123 35 -118 -9 -131 -21 -6 -57 -28 -80 -47 -47 -41 -73 -107 -71 -184 l1
-46 8 38 c4 21 16 45 26 53 10 9 14 13 7 10 -16 -8 32 77 54 96 10 9 36 21 58
28 22 7 43 17 46 22 3 5 20 -26 37 -69 l31 -78 -29 -30 c-69 -71 -77 -191 -19
-285 17 -28 44 -57 60 -66 16 -8 29 -12 29 -9 0 7 -32 58 -41 65 -12 10 -30
50 -28 63 1 6 -1 33 -5 59 -7 39 -5 53 12 80 12 19 27 46 35 62 l15 28 33 -56
c33 -55 55 -74 45 -38 -2 9 -7 49 -11 87 -3 39 -8 84 -11 100 -3 21 2 15 16
-20 11 -27 18 -56 15 -63 -3 -7 -1 -11 3 -8 4 2 27 -28 50 -67 40 -67 85 -127
96 -127 2 0 0 15 -5 32 -18 65 -5 234 32 415 l10 52 54 -19 c106 -36 101 -28
108 -213 8 -243 60 -401 166 -507 114 -114 333 -180 600 -181 154 0 238 19
324 73 52 33 141 132 182 202 38 66 90 201 111 289 16 69 22 80 49 94 16 9 64
18 106 21 99 6 172 -15 217 -61 33 -34 33 -35 29 -113 -15 -289 90 -515 283
-614 114 -58 191 -74 350 -75 161 0 230 16 325 76 28 18 45 24 42 16 -3 -8
-20 -68 -37 -133 -104 -386 -207 -545 -462 -714 -189 -125 -531 -274 -753
-328 -98 -23 -298 -23 -384 1 -213 59 -584 262 -826 453 -249 197 -377 369
-472 634 -52 146 -53 149 -69 143 -12 -4 -12 -7 2 -18 48 -35 -89 -39 -191 -5
-38 12 -95 36 -125 53 -77 43 -218 188 -257 262 -123 235 -96 554 59 701 55
53 76 64 112 61 27 -2 31 -7 47 -64z m3149 -62 c151 -40 255 -89 311 -147 43
-44 43 -74 1 -244 -17 -69 -48 -201 -69 -295 -44 -196 -55 -215 -156 -265 -81
-39 -162 -54 -269 -47 -366 23 -546 219 -524 572 9 152 44 259 112 342 47 57
74 74 153 95 90 25 331 19 441 -11z m316 -1033 l-7 -143 -37 -33 c-61 -54 -96
-78 -90 -61 3 8 25 87 49 175 37 137 65 204 87 204 2 0 1 -64 -2 -142z m-3386
-181 c15 -62 34 -150 40 -197 6 -47 15 -107 19 -135 l7 -50 32 55 c18 30 40
79 49 108 l17 52 27 -74 c33 -92 102 -200 177 -279 82 -85 97 -91 67 -25 -13
29 -26 69 -29 88 l-7 35 22 -40 c12 -22 32 -53 45 -68 13 -16 24 -35 24 -43 0
-22 -46 -109 -104 -198 -41 -62 -61 -83 -100 -103 -52 -27 -325 -143 -335
-143 -17 0 -21 658 -6 910 5 91 10 184 10 207 -1 60 11 34 45 -100z m3368
-119 c-31 -241 -75 -350 -224 -563 -84 -121 -117 -209 -129 -353 l-7 -79 -112
33 c-61 18 -171 49 -244 68 -73 20 -169 53 -214 73 l-80 38 93 40 c109 46 294
148 396 217 156 105 270 239 344 407 36 81 42 89 106 132 37 26 71 47 74 48 3
1 2 -27 -3 -61z m4301 -106 c49 -98 65 -180 56 -294 -11 -150 -18 -157 -42
-43 -29 136 -67 415 -57 415 2 0 21 -35 43 -78z m-8809 -157 c0 -14 7 -28 15
-31 8 -4 15 -12 15 -20 0 -8 4 -14 8 -14 5 0 14 -12 20 -26 9 -19 9 -24 1 -18
-16 9 -3 -13 24 -43 10 -12 16 -26 13 -31 -3 -6 0 -12 8 -15 7 -3 17 -18 20
-34 8 -30 27 -76 57 -136 11 -23 14 -35 6 -32 -7 4 -4 0 6 -8 13 -11 15 -17 7
-22 -8 -5 -9 -10 -2 -14 10 -6 23 -67 25 -126 1 -16 8 -37 16 -45 13 -13 12
-15 -8 -18 -24 -4 -44 15 -35 30 3 4 0 8 -6 8 -6 0 -9 4 -5 9 3 5 1 13 -5 16
-8 5 -7 11 1 21 9 11 8 15 -5 20 -13 5 -14 9 -5 20 9 11 8 14 -5 14 -9 0 -16
7 -16 15 0 8 -9 35 -21 59 -11 25 -22 51 -23 58 -6 33 -39 124 -50 133 -6 6
-13 19 -14 30 -2 11 -9 23 -15 27 -7 4 -8 8 -3 8 5 0 1 10 -10 22 -10 12 -14
18 -7 14 8 -4 8 2 -2 20 -8 15 -12 31 -9 36 3 4 1 8 -4 8 -5 0 -9 20 -8 45 1
46 16 65 16 20z m638 -247 c-8 -13 -25 -28 -37 -34 -14 -7 -18 -13 -10 -16 7
-2 9 -9 5 -17 -5 -7 -14 -10 -21 -7 -7 2 -12 -3 -11 -12 0 -9 -5 -16 -12 -14
-8 1 -11 -1 -8 -6 3 -5 -4 -18 -14 -30 -11 -12 -20 -26 -20 -33 0 -6 -7 -8
-16 -5 -8 3 -13 2 -10 -3 6 -10 -64 -87 -76 -83 -4 1 -6 -11 -5 -26 1 -15 -3
-27 -10 -27 -6 0 -15 -4 -20 -9 -5 -5 -3 -6 5 -2 15 9 15 7 1 -33 -6 -17 -15
-31 -21 -31 -5 0 -6 -4 -3 -10 3 -5 2 -10 -4 -10 -6 0 -8 -7 -5 -15 4 -10 0
-15 -15 -15 -12 0 -24 0 -28 -1 -4 0 -9 4 -11 10 -2 6 3 8 12 5 12 -5 14 0 11
25 -2 17 1 31 6 31 5 0 9 6 9 13 0 7 8 22 18 33 9 10 23 31 31 47 8 15 19 27
24 27 17 0 46 44 34 52 -8 5 -3 16 16 36 15 15 24 31 20 35 -3 4 2 7 13 7 16
0 17 2 4 11 -12 9 -11 10 8 6 12 -3 20 -1 16 4 -3 5 0 9 6 9 6 0 8 5 5 10 -3
6 0 10 7 10 7 0 22 11 32 25 10 13 24 22 30 18 6 -3 8 -2 3 2 -9 11 22 45 41
45 13 0 13 -3 0 -22z m1457 -43 c159 -111 448 -259 620 -316 96 -33 106 -34
253 -34 83 0 152 -3 152 -6 0 -3 -7 -28 -15 -55 -42 -145 -70 -334 -46 -320 5
3 15 30 22 58 7 29 14 48 16 41 6 -16 -51 -183 -92 -270 -40 -85 -104 -186
-175 -274 -29 -35 -55 -71 -60 -79 -5 -8 -10 -13 -12 -10 -11 16 -130 153
-173 201 -79 87 -197 248 -190 259 4 6 2 9 -4 8 -12 -3 -151 161 -151 177 1 6
6 3 13 -6 12 -16 37 -15 37 2 0 4 -7 6 -16 2 -14 -5 -15 -3 -3 18 7 14 14 19
17 11 5 -16 19 -15 25 2 4 10 -3 13 -23 12 -16 0 -28 -3 -28 -6 2 -31 -17 -35
-46 -11 -10 9 -14 22 -11 35 5 15 4 17 -3 8 -7 -10 -25 8 -71 71 -63 88 -74
109 -43 86 15 -11 15 -11 4 1 -7 8 -18 15 -24 15 -6 0 -33 41 -59 90 l-48 90
20 65 c11 36 23 93 26 127 4 42 10 60 17 56 6 -3 38 -25 71 -48z m2385 -261
c-15 -39 -12 -154 6 -215 9 -30 29 -80 45 -111 16 -32 29 -60 29 -63 0 -15
-127 86 -144 115 -38 65 -24 160 38 258 30 48 40 54 26 16z m2519 -291 c-11
-41 -28 -75 -41 -86 -22 -18 -23 -18 -32 2 -5 12 -13 21 -18 21 -5 0 -2 -10 6
-22 15 -21 12 -25 -71 -102 -48 -45 -91 -79 -97 -78 -6 2 -8 1 -4 -3 12 -12
-72 -114 -88 -108 -8 3 -14 0 -14 -7 0 -6 5 -8 10 -5 18 11 11 -3 -39 -79 -27
-41 -63 -110 -80 -153 -18 -43 -36 -88 -41 -100 -5 -13 -14 -23 -20 -23 -15 0
-12 40 4 46 12 5 12 9 -2 25 -9 10 -20 19 -25 19 -5 0 -1 -7 8 -16 12 -12 13
-19 4 -30 -6 -8 -9 -23 -6 -34 4 -15 -8 -30 -51 -65 -32 -25 -62 -45 -68 -45
-19 0 -116 109 -108 122 4 6 3 8 -4 4 -14 -8 -69 71 -95 138 -23 59 -25 157
-4 225 l13 43 28 -86 c15 -48 27 -103 26 -124 -3 -52 -2 -56 13 -43 8 6 17 8
20 4 4 -3 7 -1 7 6 0 7 -6 11 -12 8 -10 -3 -14 20 -15 94 -2 82 -20 204 -39
269 -3 13 15 18 99 28 114 13 331 69 536 137 73 25 138 42 145 38 6 -3 7 -2 3
2 -7 8 45 43 65 45 4 0 -2 -30 -13 -67z m2028 -188 c50 -116 57 -146 58 -245
0 -86 -3 -100 -29 -147 -15 -28 -41 -63 -56 -78 l-27 -26 26 73 c24 67 26 86
25 223 -1 149 -4 170 -49 290 l-7 20 14 -20 c9 -11 29 -51 45 -90z m-9010 -58
c-2 -23 -9 -52 -16 -65 -6 -12 -9 -22 -5 -22 3 0 1 -7 -6 -15 -7 -8 -10 -15
-7 -15 4 0 -1 -19 -9 -42 -15 -41 -22 -66 -28 -98 -2 -8 -7 -15 -12 -14 -12 1
-29 -17 -37 -40 -6 -16 -5 -17 8 -6 11 9 15 9 15 1 0 -6 -7 -14 -16 -18 -8 -3
-13 -11 -11 -18 3 -6 -1 -12 -9 -12 -8 0 -14 4 -14 9 0 5 -4 6 -10 3 -5 -3 -8
-16 -6 -28 2 -16 9 -21 26 -19 14 2 20 0 16 -7 -4 -6 -13 -11 -21 -11 -7 0
-15 -6 -18 -12 -2 -7 -7 5 -11 27 -4 22 -13 44 -19 48 -8 6 -6 7 5 4 9 -3 19
-3 23 1 4 4 12 7 18 7 5 0 11 9 12 20 1 11 7 39 14 63 7 23 9 47 6 52 -3 5 1
23 10 40 8 16 12 30 8 30 -5 0 1 7 11 15 11 8 14 15 8 15 -7 0 -12 5 -12 10 0
6 8 10 18 10 14 0 15 2 2 10 -9 6 -11 10 -3 10 7 0 10 6 7 14 -3 7 2 16 11 20
9 3 15 13 13 22 -2 9 4 19 12 21 13 4 13 3 0 -7 -13 -10 -13 -11 0 -7 10 3 14
14 12 31 -2 18 1 25 8 21 6 -3 9 -25 7 -48z m4541 -1583 c77 -25 243 -112 443
-230 96 -57 221 -112 324 -144 56 -17 60 -23 78 -88 24 -86 31 -198 18 -278
-16 -88 -60 -180 -87 -177 -10 1 -94 3 -186 3 -196 2 -291 12 -366 40 -68 26
-222 107 -326 172 -122 78 -151 88 -275 95 -135 7 -231 -16 -341 -82 -93 -56
-210 -78 -210 -39 0 20 25 67 45 84 13 11 15 10 9 -6 -5 -15 -4 -16 4 -4 6 8
9 17 7 21 -7 11 89 95 162 143 79 51 174 85 253 92 127 10 168 15 220 26 30 6
59 14 63 18 4 4 -70 5 -166 3 -153 -3 -183 -6 -247 -28 -85 -29 -154 -70 -231
-136 -30 -27 -59 -49 -62 -49 -4 0 -7 16 -7 35 0 42 27 75 158 191 87 78 100
86 185 113 56 17 128 31 182 36 104 7 153 18 180 40 22 17 38 17 -229 0 -118
-8 -242 -56 -328 -129 l-62 -51 58 72 c67 84 176 171 259 208 68 30 270 73
345 74 32 1 84 -9 130 -25z m-307 -662 c75 -11 119 -35 119 -63 0 -28 51 -125
126 -239 63 -98 134 -233 134 -257 0 -21 -31 -43 -61 -43 -74 0 -135 56 -279
252 -49 68 -122 161 -162 207 -59 67 -74 79 -76 63 -2 -12 4 -32 12 -45 9 -13
13 -27 9 -32 -5 -4 -3 -5 4 -2 10 7 47 -40 190 -238 67 -94 65 -89 42 -119
-27 -34 -50 -33 -138 9 -88 42 -170 106 -267 207 -55 57 -73 84 -84 122 l-14
50 46 41 c35 32 69 49 138 72 96 32 130 34 261 15z m225 -110 c38 -24 107 -67
154 -95 52 -32 91 -64 103 -84 25 -44 41 -157 27 -199 -21 -62 -79 -56 -109
11 -22 51 -99 180 -147 247 -18 26 -45 70 -60 98 -14 28 -34 55 -43 61 -9 5
-11 9 -5 7 5 -2 41 -22 80 -46z"/>
<path d="M5760 6053 c-55 -20 -119 -62 -153 -103 -30 -35 -44 -37 -97 -10 -52
26 -51 11 3 -45 42 -43 43 -46 30 -76 -30 -71 -12 -75 76 -19 85 55 147 85
215 105 110 32 229 -6 355 -115 81 -69 96 -74 87 -28 -16 80 -89 182 -170 237
-99 68 -242 90 -346 54z"/>
<path d="M7343 5865 c-77 -21 -149 -61 -205 -113 -50 -47 -85 -99 -73 -110 3
-4 27 2 53 12 164 62 195 70 303 70 103 1 108 0 180 -37 41 -21 118 -73 173
-117 54 -44 105 -80 113 -80 16 0 15 34 -2 73 -6 14 -2 17 21 17 26 0 120 47
102 51 -5 1 -12 3 -18 4 -5 1 -33 3 -61 4 -49 1 -52 3 -117 72 -80 86 -133
124 -209 150 -67 23 -183 25 -260 4z"/>
<path d="M6166 5015 c-32 -16 -36 -55 -12 -131 46 -142 122 -251 208 -295 57
-29 90 -41 83 -29 -3 6 -12 10 -20 10 -22 0 -134 110 -158 154 -16 32 -22 64
-25 142 l-4 102 48 4 c93 9 359 -1 459 -16 225 -36 313 -91 279 -174 -37 -90
-159 -182 -322 -242 -55 -21 -26 -24 45 -5 144 38 278 138 328 246 38 82 31
125 -23 153 -42 22 -273 64 -412 76 -172 14 -449 17 -474 5z"/>
<path d="M2666 6769 c-151 -37 -326 -190 -326 -284 0 -56 20 -59 53 -9 60 91
217 175 352 188 52 5 56 4 30 -5 -82 -32 -144 -98 -181 -194 -28 -74 -26 -213
4 -279 55 -121 123 -166 249 -166 128 1 199 47 257 170 29 60 31 73 31 175 0
94 -3 117 -23 160 -13 27 -33 61 -45 74 -21 23 -21 23 -1 13 11 -6 45 -31 75
-56 54 -45 54 -45 57 -19 6 41 -17 80 -79 137 -84 78 -143 98 -294 102 -66 2
-137 -1 -159 -7z"/>
<path d="M2990 5332 c0 -11 8 -26 18 -34 38 -35 188 -100 279 -122 117 -29
263 -44 263 -27 0 15 -4 16 -127 35 -137 21 -241 56 -340 116 -45 28 -84 50
-87 50 -3 0 -6 -8 -6 -18z"/>
<path d="M4342 6524 c-91 -24 -167 -76 -198 -135 -24 -48 -16 -50 46 -10 74
48 173 77 227 66 l38 -8 -38 -9 c-175 -38 -282 -311 -193 -493 40 -80 82 -109
168 -113 90 -5 143 15 198 74 110 120 139 333 61 454 l-16 25 34 -24 c56 -40
102 -94 140 -167 46 -89 66 -91 65 -9 -3 229 -287 415 -532 349z"/>
<path d="M2106 10217 c-18 -19 -18 -20 -1 -34 17 -12 13 -18 -8 -14 -5 1 -6
-3 -3 -8 4 -5 0 -12 -6 -14 -10 -4 -10 -6 0 -6 7 -1 11 -5 7 -11 -3 -5 -13 -7
-23 -4 -16 5 -16 5 1 -6 21 -14 22 -30 2 -30 -20 0 -19 -13 5 -40 11 -13 20
-18 20 -12 0 6 -7 18 -16 26 -8 9 -11 16 -5 16 5 0 18 -10 28 -23 16 -22 19
-22 46 -9 15 8 43 12 62 10 18 -2 32 -1 29 3 -2 4 0 10 6 14 5 3 10 1 10 -5 0
-6 5 -8 13 -4 7 5 7 2 -2 -10 -8 -9 -10 -16 -5 -14 14 4 54 -25 54 -39 0 -17
17 -17 23 0 2 6 6 -2 9 -20 2 -18 0 -29 -4 -26 -5 3 -8 -3 -6 -13 2 -11 -5
-20 -17 -23 -11 -3 -21 -13 -23 -21 -2 -8 -10 -19 -18 -23 -8 -4 -14 -15 -14
-23 0 -10 -5 -12 -12 -8 -9 6 -9 3 1 -9 7 -9 11 -23 8 -31 -4 -11 -1 -13 10
-9 10 4 14 2 10 -4 -5 -7 0 -9 13 -6 11 3 17 10 13 16 -4 6 0 8 10 4 22 -8 83
46 72 64 -5 8 -4 10 3 5 6 -4 26 0 43 9 23 12 29 13 23 3 -6 -11 -5 -11 8 0
18 14 21 6 33 -96 4 -29 14 -59 22 -67 8 -8 11 -15 7 -15 -3 0 -1 -6 5 -14 20
-24 53 -11 57 22 2 9 5 31 9 49 4 24 1 34 -12 42 -17 10 -17 10 0 11 9 0 17 5
17 11 0 6 -7 9 -15 5 -8 -3 -15 -1 -15 4 0 6 5 10 10 10 6 0 10 4 10 10 0 5
-8 7 -17 4 -15 -5 -15 -3 1 10 15 12 16 16 5 16 -12 0 -12 2 1 10 11 7 11 10
2 10 -9 0 -10 5 -3 19 6 10 8 21 5 24 -3 3 -1 13 4 23 9 16 11 15 28 -6 11
-13 27 -31 37 -42 9 -10 17 -23 17 -29 0 -6 17 -27 38 -47 21 -21 37 -43 34
-50 -2 -6 3 -12 12 -12 9 0 16 5 16 10 0 7 7 7 21 0 11 -7 23 -9 27 -6 3 3 0
6 -6 6 -15 0 -15 27 0 36 6 4 8 3 4 -4 -3 -6 -2 -13 4 -17 6 -4 10 5 10 20 0
14 7 28 15 31 8 4 12 10 9 15 -3 5 -1 9 5 9 6 0 2 20 -9 44 -19 45 -18 58 5
50 7 -3 16 0 20 5 3 6 11 9 16 6 18 -12 31 6 17 23 -11 13 -10 15 5 9 16 -6
17 -2 12 27 -4 20 -2 36 4 40 7 5 11 -3 11 -20 0 -23 2 -25 15 -14 13 11 20 9
40 -10 l24 -22 -6 23 c-2 14 -1 20 4 14 4 -6 22 -10 38 -9 33 1 69 -18 57 -30
-4 -4 -2 -7 3 -5 6 1 17 -1 27 -5 9 -4 33 -3 53 3 30 8 35 7 25 -4 -8 -10 -8
-15 1 -21 8 -4 9 -3 5 4 -5 8 2 12 21 13 20 0 23 2 11 7 -13 5 -15 11 -8 22 7
11 10 11 10 2 0 -7 4 -11 10 -7 5 3 6 13 3 21 -5 14 -3 14 16 2 18 -11 23 -11
30 1 5 8 16 11 29 7 42 -14 63 -15 56 -4 -5 8 -1 9 11 4 15 -5 16 -4 6 8 -7 8
-10 20 -6 27 6 8 10 7 16 -2 7 -11 9 -10 9 4 0 9 7 17 15 17 8 0 15 -5 15 -10
0 -11 61 -7 80 5 6 4 18 1 26 -6 12 -10 13 -9 9 3 -6 16 26 34 79 44 24 4 96
64 96 80 0 2 -370 4 -822 3 -816 -1 -823 -1 -842 -22z"/>
<path d="M3933 10195 c0 -25 3 -45 9 -45 6 0 0 -8 -13 -18 -14 -12 -20 -25
-16 -36 10 -25 7 -31 -11 -28 -14 2 -14 1 -3 -7 15 -9 51 6 51 22 0 4 5 5 10
2 13 -8 42 14 34 26 -3 5 0 9 6 9 7 0 10 -7 6 -15 -7 -18 10 -20 17 -2 4 9 8
8 16 -3 9 -13 11 -13 11 2 0 13 5 15 28 9 15 -4 34 -6 42 -4 9 3 7 -2 -5 -12
-19 -15 -19 -16 12 -10 17 3 35 1 38 -5 9 -15 27 -12 19 3 -6 10 -4 10 7 0 18
-18 32 -16 25 2 -3 8 -2 15 3 15 10 0 25 49 22 69 -2 11 1 12 11 4 30 -24 56
-7 48 32 -1 5 7 2 18 -8 19 -17 19 -17 16 10 -2 25 -1 26 10 10 11 -14 15 -15
25 -3 18 22 -13 25 -234 26 l-200 0 -2 -45z"/>
<path d="M4465 10219 c-4 -10 -11 -19 -17 -19 -6 0 -6 -6 2 -15 7 -8 17 -12
22 -9 6 4 14 0 19 -7 6 -11 9 -8 9 8 0 25 -16 39 -23 21 -3 -8 -6 -6 -6 5 -1
17 14 24 23 9 2 -4 24 -7 48 -5 26 1 37 -1 30 -6 -10 -6 -7 -10 10 -13 13 -2
30 2 37 9 7 7 17 10 23 7 8 -5 9 -1 4 11 -6 16 -4 16 10 4 10 -8 12 -15 5 -17
-6 -2 -8 -9 -4 -15 5 -8 2 -8 -9 0 -16 14 -28 8 -28 -15 0 -8 6 -12 15 -8 8 3
15 1 15 -4 0 -5 -9 -11 -19 -15 -26 -8 -36 -34 -10 -28 11 3 19 0 19 -6 0 -7
-4 -9 -10 -6 -9 6 -15 -8 -11 -29 1 -4 -5 -19 -14 -32 -11 -17 -12 -24 -3 -24
6 0 1 -12 -13 -27 -13 -14 -18 -23 -10 -18 10 6 12 2 7 -16 -3 -13 -3 -18 0
-11 9 19 23 14 19 -6 -3 -19 30 -29 40 -11 4 5 10 7 15 4 5 -3 7 7 5 22 -2 16
-2 23 1 16 3 -7 12 -9 20 -6 7 3 12 8 10 12 -2 3 0 15 5 26 6 17 8 17 8 3 1
-10 5 -18 11 -18 5 0 7 6 4 14 -7 19 14 30 31 16 10 -8 15 -8 21 1 5 8 3 10
-7 4 -8 -5 -11 -4 -6 0 4 5 16 9 27 10 16 1 17 -2 9 -19 -10 -20 -9 -20 9 1
24 28 36 19 16 -12 -15 -22 -14 -23 8 -18 23 5 23 5 3 -12 -15 -12 -16 -15 -4
-12 11 4 16 0 15 -10 0 -9 6 -18 14 -20 13 -4 13 -3 0 6 -13 9 -13 11 1 11 9
0 20 -7 23 -16 5 -13 1 -15 -25 -12 -28 4 -30 3 -15 -8 10 -7 24 -10 31 -8 8
4 13 -1 11 -10 -3 -20 -16 -34 -16 -17 0 8 -5 7 -16 -4 -22 -22 -10 -31 22
-16 14 6 29 9 34 6 5 -3 12 0 16 6 5 8 3 9 -6 4 -10 -6 -12 -4 -7 8 3 9 2 19
-3 22 -13 8 -13 25 1 25 5 0 7 -5 3 -12 -4 -6 -3 -8 2 -5 8 5 9 24 5 70 -1 5
-6 5 -13 1 -7 -5 -8 -3 -3 5 5 9 10 10 18 2 13 -13 30 -15 22 -2 -3 5 -1 12 5
16 6 3 14 -4 19 -17 8 -21 10 -21 16 -5 4 10 4 21 0 25 -6 7 -10 8 -35 11 -7
1 -6 6 1 14 11 11 16 10 33 -7 11 -11 20 -30 19 -41 -1 -14 1 -12 9 8 15 34
31 36 18 2 -6 -15 -6 -26 0 -30 6 -4 10 3 10 15 0 12 4 19 9 16 5 -3 7 -14 4
-24 -7 -27 31 -57 54 -43 11 7 13 11 4 11 -7 0 -11 6 -8 15 5 11 1 12 -18 5
-29 -11 -32 -4 -7 23 16 19 16 20 0 14 -12 -4 -19 0 -23 14 -5 14 -13 19 -26
16 -10 -3 -22 -1 -25 4 -3 5 7 9 21 9 21 0 26 4 21 16 -3 9 -6 20 -6 26 0 6
-6 8 -13 5 -8 -3 -14 3 -14 14 -1 11 2 17 7 14 5 -3 12 -1 15 5 4 6 3 10 -2 9
-27 -5 -35 1 -23 16 8 10 9 15 2 15 -6 0 -16 -8 -21 -17 -6 -10 -11 -13 -11
-7 0 6 16 24 35 41 19 17 35 29 35 26 0 -3 8 1 17 8 15 12 16 12 11 -8 -7 -25
8 -34 44 -27 21 4 21 4 3 -5 -11 -5 -17 -10 -12 -11 9 -3 46 -3 50 0 1 1 10 3
20 5 27 5 34 15 11 15 -15 0 -16 2 -4 9 8 6 18 7 24 4 5 -3 6 -1 2 6 -4 6 -12
9 -17 5 -6 -3 -13 3 -16 15 -5 18 -13 21 -59 21 -29 0 -56 -5 -59 -10 -4 -7
-12 -7 -25 0 -11 6 -130 9 -294 9 -261 -1 -276 -2 -281 -20z"/>
<path d="M8906 10232 c-10 -9 -7 -32 5 -32 5 0 7 5 3 12 -5 8 -2 9 12 4 10 -4
30 -10 43 -12 26 -5 60 -41 61 -64 0 -13 1 -13 10 0 5 8 10 10 10 4 0 -6 -7
-17 -15 -24 -8 -7 -15 -19 -15 -26 0 -8 -4 -14 -10 -14 -5 0 -10 -9 -10 -21 0
-11 4 -18 9 -15 5 3 14 -8 20 -24 5 -17 13 -30 16 -30 3 0 4 4 1 9 -3 5 0 14
8 20 11 9 15 8 20 -5 3 -9 4 -19 1 -24 -3 -4 3 -14 12 -21 9 -8 17 -13 17 -12
1 1 11 0 24 -3 27 -8 29 -30 2 -46 -20 -13 -27 -29 -12 -27 22 4 29 -3 25 -25
-4 -18 0 -25 17 -29 12 -3 20 -9 17 -14 -3 -5 3 -9 13 -9 10 0 16 6 13 13 -3
7 -10 11 -16 10 -7 -1 -11 6 -9 16 3 19 -14 23 -21 5 -4 -10 -6 -10 -6 -1 -1
19 17 25 38 13 25 -13 38 4 21 28 -7 9 2 1 19 -18 20 -22 27 -36 19 -39 -6 -2
-14 1 -16 8 -2 6 -8 11 -13 11 -15 0 -10 -26 7 -41 13 -10 17 -10 24 1 8 12
10 12 15 -1 3 -9 12 -16 20 -16 23 0 18 14 -7 22 l-23 8 21 4 c12 2 24 13 27
25 4 13 10 17 18 12 9 -5 10 -2 6 10 -6 14 -3 15 13 6 11 -6 20 -15 20 -21 0
-6 5 -7 10 -4 6 3 10 2 10 -4 0 -5 -4 -13 -10 -16 -5 -3 -10 -1 -10 6 0 6 -8
9 -20 6 -10 -3 -21 0 -22 5 -2 6 -4 -11 -4 -36 0 -33 -5 -49 -18 -59 -12 -9
-17 -20 -13 -31 4 -9 3 -15 -2 -12 -5 3 -11 -1 -14 -9 -4 -9 -1 -12 9 -8 10 4
12 0 7 -13 -4 -12 -3 -15 5 -10 7 4 12 1 12 -9 0 -9 -5 -13 -11 -10 -6 4 -6 0
2 -12 10 -18 47 -25 59 -13 3 3 16 11 29 19 22 12 26 11 43 -10 11 -13 17 -19
14 -13 -3 7 4 12 20 12 14 0 32 8 40 18 14 18 15 18 5 -2 -6 -12 -7 -24 -3
-28 3 -4 0 -11 -8 -16 -13 -8 -12 -10 3 -10 9 0 17 7 17 15 0 8 5 15 11 15 5
0 7 -5 3 -12 -4 -7 -3 -8 5 -4 6 4 9 12 6 17 -9 13 9 11 24 -3 10 -11 11 -9 5
6 -5 13 -1 23 12 33 18 15 18 15 -3 9 -25 -8 -36 4 -21 24 8 12 9 12 4 -2 -3
-10 -2 -18 2 -18 11 0 34 17 33 24 -3 18 1 22 25 24 19 1 27 -4 31 -19 4 -14
8 -17 13 -9 9 14 30 5 30 -13 0 -7 -4 -6 -10 3 -8 12 -10 11 -10 -8 0 -19 4
-21 24 -16 18 4 27 1 33 -13 13 -26 9 -49 -7 -45 -8 2 -11 0 -7 -5 5 -4 13 -9
18 -9 22 -3 23 -5 9 -14 -13 -9 -13 -10 0 -10 9 0 22 -9 30 -20 18 -25 34 -27
22 -2 -5 9 -7 23 -5 30 6 14 29 16 38 2 3 -5 0 -7 -8 -4 -8 3 -18 1 -22 -5 -3
-6 -1 -11 6 -11 7 0 9 -3 6 -7 -4 -3 1 -11 10 -18 13 -9 13 -14 3 -20 -9 -5
-11 -4 -6 3 4 7 2 12 -3 12 -15 0 -14 -23 1 -38 7 -7 8 -12 4 -12 -4 0 -17 11
-28 25 -11 14 -25 25 -31 25 -8 0 -7 -3 2 -9 7 -5 10 -14 7 -20 -4 -6 -4 -10
1 -9 4 2 9 -1 10 -7 1 -5 -5 -9 -13 -7 -19 4 -18 -27 1 -34 8 -4 15 -12 15
-19 0 -8 4 -16 8 -19 5 -3 7 11 5 31 l-2 35 19 -22 c19 -22 24 -35 21 -52 0
-5 4 -8 10 -8 8 0 7 -5 -1 -15 -11 -13 -10 -14 3 -10 8 4 18 2 22 -4 3 -6 0
-9 -8 -5 -8 3 -18 0 -22 -5 -3 -6 -10 -9 -14 -7 -4 3 -7 -5 -8 -17 0 -12 1
-16 4 -9 3 6 17 12 31 11 l27 -1 -25 -8 c-14 -4 -19 -8 -11 -9 10 -1 8 -8 -9
-26 -13 -14 -20 -28 -17 -32 4 -3 7 -1 7 5 0 21 16 13 29 -14 13 -29 6 -47 -9
-24 -6 8 -10 11 -10 5 0 -20 18 -37 30 -30 8 5 11 3 8 -6 -3 -8 -10 -13 -15
-12 -5 1 -10 -11 -10 -27 0 -26 14 -35 27 -18 3 4 12 3 20 -2 13 -8 12 -10 -2
-10 -10 0 -18 -4 -18 -10 0 -5 6 -10 14 -10 8 0 17 -7 20 -15 5 -14 4 -14 -16
0 -13 8 -32 15 -43 15 -16 -1 -14 -4 10 -16 17 -8 22 -12 13 -9 -10 2 -18 0
-18 -5 0 -6 15 -10 33 -11 17 0 27 -3 20 -5 -7 -3 -9 -12 -6 -20 7 -19 -7 -18
-21 2 -10 13 -12 13 -13 -5 -1 -11 1 -20 5 -20 23 4 24 -4 2 -17 l-25 -15 25
7 c21 6 23 5 13 -7 -8 -10 -9 -20 -3 -29 8 -12 10 -12 10 -1 0 11 3 11 15 1 8
-7 15 -18 15 -24 0 -8 -3 -7 -8 1 -5 7 -13 9 -21 3 -8 -4 -19 -6 -26 -4 -6 3
-12 -2 -12 -10 0 -11 5 -13 18 -5 24 12 30 11 28 -3 -3 -26 1 -39 11 -33 6 3
10 -1 10 -10 0 -10 -7 -14 -22 -12 -13 2 -18 2 -12 0 10 -3 23 -28 28 -55 0
-4 7 -13 14 -19 10 -10 12 -10 12 3 0 11 7 16 19 13 14 -3 18 1 14 11 -3 8
-10 14 -16 14 -6 0 -7 3 -4 7 4 3 1 13 -6 21 -10 13 -9 14 2 7 12 -7 13 -1 8
29 -5 34 -5 36 11 24 16 -12 16 -11 1 7 -9 11 -14 26 -12 33 3 6 0 12 -6 12
-6 0 -8 7 -5 15 4 8 11 12 18 8 6 -4 3 6 -8 21 -10 16 -13 25 -7 22 15 -10 14
7 -1 23 -11 11 -10 13 5 8 19 -7 24 8 6 19 -8 4 -7 9 2 15 10 6 11 9 2 9 -7 0
-13 5 -13 11 0 5 4 8 9 5 5 -3 12 1 15 10 4 11 2 15 -8 11 -11 -4 -13 -1 -9
11 4 9 11 20 16 23 4 3 2 13 -6 20 -12 13 -12 16 1 29 11 9 12 15 4 18 -8 2
-7 9 4 20 11 11 13 17 5 20 -6 2 -11 8 -11 13 0 6 5 7 10 4 13 -8 13 1 0 25
-9 17 -8 18 7 13 16 -6 17 -5 3 12 -12 15 -12 17 -1 10 11 -6 13 -4 8 8 -4 10
-2 17 5 17 6 0 5 6 -3 17 -10 11 -10 14 -1 9 7 -4 12 -2 13 6 1 7 2 20 3 28 1
8 -4 24 -10 36 -11 19 -10 21 13 16 23 -4 25 -2 21 22 -3 14 -1 26 3 26 8 0
13 -22 11 -41 -1 -4 7 -5 18 -2 17 5 17 7 5 20 -8 8 -15 19 -15 26 0 6 7 2 16
-9 15 -18 15 -18 10 0 -5 16 -4 17 8 7 8 -7 12 -19 9 -27 -3 -9 1 -14 12 -14
9 0 14 -4 10 -10 -9 -15 54 -43 69 -31 7 6 16 8 20 4 4 -4 4 0 0 10 -4 12 -1
17 10 17 14 0 16 37 16 375 l0 376 -635 -1 c-394 -1 -637 -5 -640 -11 -4 -5
-12 -6 -18 -2 -16 10 -34 12 -41 5z m360 -113 c4 -8 9 -7 16 2 7 11 8 10 4 -4
-4 -13 -2 -16 7 -10 18 11 37 12 37 2 0 -5 -7 -9 -16 -9 -8 0 -13 -4 -10 -9 6
-10 20 -9 48 3 10 5 23 6 30 3 8 -4 6 -6 -4 -6 -22 -1 -22 -10 -4 -36 11 -16
18 -55 11 -55 -2 0 -9 8 -16 17 -10 11 -10 14 -1 9 25 -15 11 12 -15 29 -16
10 -22 12 -15 4 17 -18 15 -39 -3 -39 -8 0 -15 -7 -15 -16 0 -10 -5 -14 -16
-10 -8 3 -24 -3 -36 -14 -12 -11 -25 -17 -31 -13 -5 3 1 12 14 19 13 7 20 13
16 14 -5 0 -18 -5 -29 -11 -18 -10 -20 -9 -16 8 3 12 0 20 -8 20 -7 0 -12 -10
-11 -21 1 -14 -4 -21 -15 -21 -10 0 -18 5 -19 10 0 6 -6 17 -12 25 -6 8 1 4
16 -9 l27 -25 -2 25 c-2 18 2 25 20 27 12 2 20 7 17 12 -3 5 -16 5 -30 0 -16
-6 -25 -6 -25 0 0 6 7 10 16 10 14 0 15 2 3 17 -8 9 -9 14 -3 10 7 -4 17 0 24
8 15 18 37 19 43 3 3 -8 6 -6 6 4 1 9 -7 22 -16 27 -10 6 -13 11 -6 11 6 0 15
-5 19 -11z"/>
<path d="M10214 9015 c-3 -19 -9 -33 -13 -31 -4 3 -8 -5 -8 -16 -1 -12 -8 -25
-15 -29 -7 -4 -9 -11 -5 -15 4 -4 0 -15 -9 -25 -9 -10 -14 -25 -11 -34 4 -8 2
-15 -3 -15 -6 0 -10 -16 -10 -35 0 -23 -4 -34 -12 -32 -8 1 -13 -8 -13 -24 1
-18 -4 -26 -15 -25 -10 1 -14 -6 -12 -19 2 -17 1 -17 -8 -5 -9 13 -11 13 -19
1 -8 -12 -14 -12 -38 4 -15 9 -22 12 -15 4 17 -18 15 -34 -3 -19 -8 7 -15 21
-15 31 0 10 -5 21 -12 25 -7 5 -8 3 -3 -6 5 -8 4 -11 -3 -6 -6 4 -9 13 -5 21
3 8 0 15 -5 15 -18 0 -24 -20 -12 -35 10 -12 9 -15 -3 -15 -23 0 -40 -26 -29
-45 5 -10 5 -35 1 -59 -8 -39 -6 -42 34 -78 23 -21 37 -38 31 -38 -6 0 -17 7
-24 16 -21 24 -47 35 -47 19 0 -8 5 -13 11 -12 6 1 10 -4 8 -11 -1 -8 2 -11 7
-8 5 4 12 2 15 -3 3 -4 20 -12 38 -16 29 -6 30 -8 13 -14 -12 -5 -23 -4 -27 2
-4 7 -12 6 -24 -4 -11 -9 -15 -9 -10 -1 4 6 2 12 -3 12 -6 0 -14 0 -18 0 -4 0
-8 -6 -9 -15 -1 -8 4 -15 12 -15 10 0 12 -5 8 -12 -6 -10 -4 -10 8 0 16 13 48
7 48 -10 0 -5 -4 -7 -9 -4 -13 8 -42 -4 -35 -15 3 -5 9 -7 14 -4 4 3 7 -2 6
-10 -3 -19 -16 -32 -16 -16 0 7 -5 9 -10 6 -15 -9 -2 -25 21 -25 11 0 17 5 14
10 -3 6 1 10 10 10 9 0 14 -4 10 -9 -3 -5 2 -17 11 -26 9 -9 14 -18 11 -21 -2
-3 -12 2 -20 10 -11 12 -22 13 -39 7 -13 -6 -19 -10 -14 -10 5 -1 3 -7 -3 -15
-9 -11 -9 -16 0 -22 7 -4 9 -3 6 2 -3 6 3 15 14 22 10 7 19 8 19 3 0 -6 -4
-13 -10 -16 -13 -8 -13 -25 1 -25 5 0 8 3 6 8 -6 9 19 33 27 25 10 -10 7 -35
-4 -28 -15 9 -11 -17 5 -39 12 -16 12 -22 2 -28 -9 -6 -9 -10 3 -18 12 -8 12
-10 -5 -10 -29 0 -47 15 -43 36 2 12 -3 19 -15 20 -12 1 -13 0 -2 -3 11 -3 12
-9 5 -23 -8 -15 -4 -20 20 -30 32 -13 65 -7 54 11 -3 6 0 15 7 20 11 7 11 9 1
9 -9 0 -11 7 -7 23 5 17 4 19 -4 7 -8 -11 -11 -12 -11 -2 0 8 9 16 20 19 17 5
19 11 14 44 -6 35 -5 39 11 33 17 -7 17 -6 0 19 -9 15 -21 27 -26 27 -5 0 -9
5 -9 12 0 6 8 4 19 -6 18 -16 19 -16 29 14 9 23 8 29 0 24 -7 -4 -3 6 9 22 28
40 32 56 21 79 -8 19 -8 19 5 3 19 -24 31 -23 24 2 -3 11 -1 18 4 14 5 -3 9 4
9 16 0 13 -4 19 -12 14 -7 -4 -8 -3 -4 5 4 6 11 9 16 6 14 -8 30 24 33 67 1 9
4 15 8 12 4 -2 10 3 13 12 3 8 2 13 -3 10 -5 -3 -11 1 -14 9 -4 10 -1 12 10 8
13 -5 14 -3 3 17 -7 12 -8 20 -2 16 5 -3 16 2 23 11 12 14 12 16 -1 9 -8 -4
-6 0 4 8 19 16 19 16 -5 17 -20 1 -21 2 -4 6 32 8 35 22 34 131 -1 102 -12
132 -25 67z"/>
<path d="M9699 6505 c-3 -28 -4 -33 -11 -41 -5 -4 -8 -16 -8 -26 0 -15 -4 -17
-18 -9 -20 11 -48 -1 -38 -17 3 -5 -1 -13 -10 -16 -22 -8 -26 -8 -19 4 3 6 -1
10 -9 10 -9 0 -16 7 -16 16 0 14 2 14 16 -1 9 -9 19 -13 22 -10 4 3 0 11 -8
16 -12 9 -12 10 3 5 9 -3 17 0 17 6 0 7 -14 9 -41 5 -51 -7 -59 -15 -35 -33
11 -8 15 -14 9 -14 -7 0 -14 4 -17 9 -3 5 -15 7 -26 4 -21 -5 -28 11 -10 22 6
3 10 1 10 -6 0 -7 3 -9 6 -6 11 11 -18 38 -34 32 -8 -3 -22 0 -31 7 -13 10
-14 10 -4 -1 6 -7 9 -21 6 -30 -5 -13 -2 -13 15 3 12 11 25 16 28 13 4 -4 -1
-9 -10 -13 -23 -9 -20 -23 7 -35 l22 -10 -22 5 c-13 2 -23 1 -23 -4 0 -10 31
-24 50 -22 8 1 5 -3 -7 -9 -17 -9 -25 -8 -39 5 -9 9 -19 14 -22 11 -3 -3 0
-11 6 -17 15 -15 16 -39 1 -35 -6 1 -13 -8 -14 -21 -2 -22 0 -22 22 7 14 17
29 29 34 26 5 -4 9 -1 9 4 0 6 5 11 10 11 6 0 10 -11 10 -24 0 -14 4 -27 8
-30 5 -3 6 9 4 26 -4 26 -2 30 12 25 10 -4 19 -1 22 8 7 16 44 21 44 5 0 -5
-8 -6 -17 -3 -17 6 -17 6 -1 -10 18 -18 33 -23 23 -8 -8 15 15 25 28 12 8 -8
8 -11 -2 -11 -7 0 -9 -4 -6 -10 3 -5 1 -10 -4 -10 -16 0 -13 -29 4 -46 13 -14
16 -14 21 0 3 8 13 12 22 9 13 -4 14 -3 3 5 -7 5 -9 12 -5 14 5 3 4 3 -3 2
-21 -5 -25 30 -6 46 10 8 18 22 18 30 0 8 6 20 14 26 10 8 11 13 3 18 -7 4
-12 3 -12 -2 0 -13 -71 -55 -79 -46 -3 4 0 9 7 11 6 3 12 13 12 24 0 17 3 18
20 7 17 -11 22 -10 30 2 5 8 6 18 3 23 -3 5 5 4 18 -3 21 -10 22 -9 7 3 -16
13 -19 39 -5 53 10 11 9 24 -3 24 -5 0 -11 -7 -11 -15z"/>
<path d="M9525 5906 c-5 -6 -11 -18 -13 -26 -2 -11 1 -10 11 3 21 26 30 21 12
-7 -15 -23 -14 -25 11 -43 20 -15 24 -22 14 -28 -9 -5 -11 -4 -6 3 4 7 3 12
-3 12 -5 0 -12 -6 -14 -12 -4 -10 -8 -9 -17 2 -9 12 -10 11 -5 -7 4 -14 2 -23
-4 -23 -6 0 -11 -5 -11 -11 0 -7 9 -5 24 4 20 13 25 14 29 3 3 -8 0 -19 -6
-25 -8 -8 -8 -11 1 -11 7 0 12 5 12 11 0 5 5 7 11 3 8 -5 8 -8 0 -14 -7 -4
-11 -13 -9 -20 2 -8 -11 -19 -30 -25 -17 -6 -38 -18 -45 -26 -10 -12 -10 -12
3 -1 31 27 56 13 51 -28 -1 -8 10 2 24 23 26 38 27 38 48 20 l22 -18 -19 23
c-13 14 -15 22 -6 22 8 0 11 11 7 38 -3 20 -3 29 -1 20 3 -10 10 -18 15 -18 6
0 8 -13 5 -30 -2 -16 0 -30 4 -30 15 0 21 18 8 23 -8 3 -9 6 -2 6 13 1 6 51
-7 51 -5 0 -9 5 -9 12 0 9 3 9 12 0 7 -7 19 -12 28 -12 13 1 13 2 -2 14 -16
12 -16 14 3 29 22 20 25 37 5 37 -15 0 -16 16 -1 40 8 13 7 13 -8 1 -9 -7 -17
-20 -17 -28 0 -9 -5 -11 -12 -6 -7 4 -24 9 -38 9 -14 1 -30 2 -37 3 -7 1 -10
7 -7 14 7 20 -18 38 -31 23z"/>
<path d="M330 4578 c-17 -17 -21 -18 -17 -5 4 9 2 17 -3 17 -6 0 -10 -4 -10
-10 0 -5 -6 -10 -14 -10 -9 0 -12 -8 -8 -26 3 -15 1 -24 -4 -21 -5 3 -14 -6
-21 -19 -6 -13 -7 -24 -2 -24 5 0 9 -5 9 -11 0 -5 -4 -7 -10 -4 -15 9 -12 -38
3 -54 10 -11 9 -13 -4 -8 -13 4 -16 1 -11 -15 4 -15 2 -19 -7 -13 -8 4 -6 -3
3 -17 9 -14 14 -33 10 -42 -4 -9 0 -18 9 -22 9 -3 16 -14 16 -25 1 -10 1 -28
2 -38 0 -10 9 -21 20 -24 10 -3 19 -11 19 -19 0 -11 -2 -11 -9 1 -7 10 -10 10
-16 1 -4 -7 -3 -15 4 -19 6 -4 13 -28 16 -54 4 -39 28 -97 41 -97 6 0 -10 35
-19 41 -6 4 -4 15 5 28 8 11 18 18 22 14 4 -4 4 1 0 11 -5 14 -4 17 4 12 7 -4
12 -1 12 9 0 10 -5 13 -12 9 -7 -4 -8 -3 -4 5 4 6 11 9 16 6 4 -3 10 2 14 10
3 8 1 17 -4 20 -16 10 -11 23 8 21 10 0 16 6 16 16 -1 10 2 15 7 12 8 -5 13 9
10 29 0 4 4 7 9 7 5 0 9 3 8 8 -4 18 15 81 23 76 13 -7 11 -3 -10 42 -11 21
-17 42 -14 46 2 5 -1 8 -7 8 -6 0 -8 5 -5 10 3 6 1 10 -5 10 -9 0 -16 13 -55
103 l-12 29 -23 -24z"/>
<path d="M3 4444 c-1 -19 3 -34 8 -34 6 0 6 -7 1 -17 -5 -10 -10 -47 -11 -82
-2 -52 1 -66 18 -82 12 -11 22 -15 26 -9 8 13 25 13 25 -1 0 -5 -4 -7 -10 -4
-5 3 -10 1 -10 -5 0 -7 7 -9 16 -6 9 3 18 6 20 6 3 0 2 5 -2 12 -4 7 -3 8 4 4
7 -4 12 -1 12 8 0 9 4 16 10 16 5 0 6 -8 3 -17 -6 -16 -5 -16 10 -4 10 8 20
11 24 8 3 -4 -2 -9 -11 -13 -9 -3 -16 -11 -16 -16 0 -6 8 -7 17 -3 13 4 12 1
-4 -15 -26 -24 -29 -36 -9 -43 10 -4 13 1 10 16 -2 12 1 7 8 -10 8 -24 17 -33
32 -32 18 1 18 2 3 6 -15 4 -16 7 -5 21 10 12 10 14 1 8 -8 -4 -13 -1 -13 9 0
10 5 13 13 9 8 -5 8 -3 -2 9 -7 9 -11 26 -8 38 3 13 0 22 -10 26 -12 5 -12 7
-1 14 10 7 9 9 -4 9 -10 0 -17 3 -17 8 4 27 -4 51 -18 57 -15 5 -16 4 -5 -6 6
-7 12 -17 12 -23 0 -5 -9 1 -20 14 -23 27 -24 31 -7 28 6 -2 10 4 8 12 -2 8
-4 21 -4 28 0 7 -6 11 -14 8 -7 -3 -13 0 -13 7 0 7 -7 21 -15 31 -15 20 -15
20 -29 1 -13 -18 -14 -18 -9 7 3 14 1 28 -4 31 -4 3 -9 -10 -10 -29z"/>
<path d="M1 3273 l1 -198 24 -1 c13 -1 24 2 24 7 0 5 6 9 14 9 12 0 21 11 25
33 0 4 -2 7 -5 6 -8 -1 -24 22 -24 34 0 4 6 7 13 7 24 0 37 21 22 36 -17 18
-22 18 -22 -1 0 -8 4 -12 9 -9 4 3 8 0 8 -6 0 -8 -9 -10 -28 -5 -33 8 -39 14
-44 40 -2 14 3 21 19 23 13 2 20 8 17 17 -3 7 0 16 6 20 6 3 10 3 9 -2 -4 -20
2 -27 12 -13 9 13 10 13 6 -2 -3 -9 -3 -19 1 -21 4 -2 1 -2 -5 -1 -7 2 -13 -1
-13 -6 0 -6 7 -10 15 -10 8 0 15 -4 15 -10 0 -5 5 -10 11 -10 6 0 9 6 6 14 -3
8 0 19 7 25 10 9 13 6 10 -15 -2 -19 1 -24 12 -20 8 3 14 1 14 -4 0 -6 -5 -10
-12 -10 -6 0 -9 -2 -6 -5 8 -9 38 6 32 16 -9 15 8 10 28 -8 26 -24 22 -10 -7
21 -14 15 -25 22 -25 17 0 -6 -4 -11 -10 -11 -5 0 -10 9 -10 19 0 10 -8 22
-17 25 -13 6 -14 9 -4 15 9 6 4 17 -20 42 -17 19 -29 28 -25 22 5 -9 2 -11
-10 -6 -15 5 -15 7 0 15 9 5 16 13 16 18 0 14 -28 12 -32 -2 -3 -9 -6 -9 -12
0 -4 7 -3 12 3 12 16 0 -9 59 -30 70 -17 10 -18 1 -18 -187z"/>
<path d="M9696 2273 c1 -18 -1 -33 -6 -33 -5 0 -16 -8 -26 -17 -17 -17 -17
-16 -11 17 5 25 4 31 -3 20 -5 -8 -10 -11 -10 -5 0 5 -5 4 -11 -2 -8 -8 -6
-17 7 -32 17 -19 19 -19 36 -4 10 9 18 12 18 7 0 -5 5 -2 10 6 7 11 10 11 10
2 0 -7 5 -10 10 -7 8 5 7 11 -1 21 -10 12 -9 13 5 8 9 -3 15 -13 14 -22 -2 -8
3 -17 11 -20 10 -3 12 0 8 12 -5 12 0 16 18 16 13 0 27 -5 31 -12 4 -7 3 -8
-4 -4 -7 4 -12 2 -12 -4 0 -7 8 -9 20 -5 11 3 20 2 20 -3 0 -9 19 -8 72 3 22
4 26 2 22 -10 -5 -11 -10 -13 -19 -5 -9 7 -16 5 -26 -7 -9 -11 -10 -14 -1 -9
6 4 12 3 12 -2 0 -20 35 0 48 26 17 37 15 52 -8 52 -11 0 -20 -7 -20 -16 0 -8
-5 -12 -10 -9 -6 4 -8 11 -5 16 4 5 1 9 -4 9 -6 0 -11 -4 -11 -10 0 -5 -7 -10
-15 -10 -8 0 -15 -5 -15 -12 0 -6 -3 -8 -7 -4 -5 4 -8 13 -8 19 0 6 -11 14
-24 17 -25 6 -42 30 -22 30 6 0 11 -5 11 -12 0 -6 2 -9 5 -6 3 3 3 13 -1 22
-5 12 -10 14 -19 6 -9 -8 -15 -8 -20 -1 -3 6 -21 10 -39 8 -30 -2 -33 -4 -30
-34z"/>
<path d="M10000 2271 c0 -5 6 -12 13 -14 7 -3 5 -6 -5 -6 -10 -1 -18 -5 -18
-11 0 -13 13 -13 27 1 8 8 13 8 17 0 4 -6 0 -11 -9 -11 -9 0 -13 -5 -10 -10 4
-6 11 -8 16 -5 5 4 9 1 9 -5 0 -7 -7 -10 -15 -7 -8 4 -17 2 -20 -3 -4 -6 1
-10 9 -10 9 0 16 -4 16 -9 0 -5 -9 -7 -20 -4 -21 6 -35 36 -32 68 2 19 2 19
-9 2 -6 -10 -8 -21 -5 -24 3 -3 -2 -12 -10 -20 -13 -14 -13 -17 2 -32 19 -18
75 -22 86 -6 4 6 8 -3 8 -19 0 -23 -3 -26 -14 -17 -10 9 -15 8 -19 -3 -7 -17
8 -30 23 -21 15 9 12 -4 -5 -21 -18 -19 -20 -37 -2 -31 6 2 11 9 10 15 -2 7 4
9 14 5 13 -5 15 -2 11 15 -4 12 -2 22 3 22 5 0 9 -4 9 -8 0 -5 14 -8 30 -7 27
2 35 -5 31 -27 0 -4 6 -5 14 -2 8 4 15 10 15 16 0 5 -4 6 -10 3 -5 -3 -10 1
-10 10 0 11 5 15 16 11 8 -3 12 -2 9 4 -3 6 1 10 11 10 11 0 15 -6 11 -20 -5
-20 24 -46 37 -33 12 12 6 33 -9 33 -8 0 -15 4 -15 8 0 5 -7 17 -16 28 -8 10
-13 13 -9 7 5 -11 1 -14 -20 -13 -3 1 -13 -6 -22 -15 -18 -18 -37 -7 -28 17 4
10 15 13 31 10 13 -2 24 0 24 6 0 6 9 16 20 22 15 8 18 8 15 -3 -4 -8 2 -13
13 -13 10 0 19 6 19 13 0 7 -4 10 -9 7 -4 -3 -8 0 -8 5 0 6 4 11 10 11 12 0 8
34 -5 38 -6 2 -19 8 -30 14 -14 7 -13 3 5 -11 25 -21 25 -22 5 -36 -10 -9 -24
-14 -30 -12 -5 2 -15 -3 -22 -12 -10 -14 -11 -13 -6 7 3 14 11 21 19 18 8 -3
12 2 11 15 -1 22 -13 25 -20 7 -3 -7 -6 -4 -7 7 -1 18 -1 19 -11 2 -5 -9 -7
-22 -4 -27 4 -6 -1 -7 -11 -3 -13 5 -15 3 -9 -7 5 -8 4 -11 -2 -7 -16 10 -34
-16 -23 -33 6 -8 9 -22 9 -30 0 -9 -2 -11 -5 -3 -3 7 -11 10 -17 7 -27 -10
-15 38 16 66 18 16 27 30 20 30 -6 0 -19 -7 -27 -16 -18 -17 -21 -12 -7 14 6
12 3 23 -11 37 -16 17 -18 17 -13 2 10 -24 -12 -22 -27 3 -13 21 -28 27 -28
11z"/>
<path d="M9743 2085 c1 -10 -5 -20 -13 -22 -13 -4 -13 -3 0 6 8 6 10 11 5 11
-6 0 -17 -6 -24 -12 -11 -11 -12 -10 -6 0 5 10 2 13 -10 10 -10 -1 -20 -9 -23
-17 -3 -8 0 -11 7 -7 16 10 14 -9 -3 -23 -11 -9 -14 -9 -13 1 2 47 -3 56 -25
51 -13 -3 -28 -10 -35 -15 -7 -6 -19 -6 -31 1 -13 7 -19 7 -19 -2 0 -7 -3 -29
-7 -50 -5 -27 -4 -37 3 -32 15 9 14 -2 -5 -29 -10 -16 -12 -26 -5 -31 6 -3 11
-2 11 4 0 6 8 7 17 4 15 -6 14 -7 -3 -14 -10 -4 -23 -3 -28 2 -19 17 -33 9
-33 -18 0 -25 0 -26 13 -8 8 10 14 13 14 7 0 -7 0 -15 0 -19 0 -5 -3 -8 -7 -8
-5 -1 -18 -5 -31 -9 -14 -5 -29 -3 -38 5 -8 7 -14 8 -13 3 3 -18 -1 -34 -10
-34 -5 0 -7 10 -4 23 4 19 3 20 -9 7 -7 -8 -19 -15 -25 -16 -34 -3 -35 -5 -29
-36 3 -17 3 -29 0 -25 -4 4 -13 2 -20 -4 -8 -7 -14 -7 -19 1 -4 6 -1 9 7 8 9
-2 13 7 11 30 -1 40 -9 50 -25 34 -9 -9 -9 -12 0 -12 14 0 16 -26 2 -35 -5 -3
-7 0 -4 9 4 11 0 14 -13 12 -21 -4 -48 20 -33 29 6 3 10 11 10 17 0 6 -7 5
-17 -3 -15 -13 -15 -12 -4 9 6 12 7 22 2 22 -5 0 -12 -6 -14 -12 -3 -7 -6 0
-6 15 -1 23 -3 26 -15 15 -8 -7 -11 -15 -7 -18 4 -3 11 -14 14 -25 6 -18 6
-18 -6 -3 -9 11 -22 14 -40 11 -23 -5 -26 -3 -21 13 4 11 4 16 0 12 -15 -13
-18 -68 -4 -69 24 -2 43 3 50 14 6 9 8 9 8 0 0 -6 -4 -14 -10 -18 -6 -4 -6
-15 0 -31 7 -17 7 -23 0 -19 -6 3 -10 12 -10 19 0 8 -11 16 -26 19 -25 4 -25
3 -22 -49 2 -30 5 -54 8 -55 3 0 17 -3 32 -5 23 -4 27 -2 21 13 -3 10 -3 15 2
11 4 -4 20 -1 35 7 26 13 27 13 25 -8 -3 -32 -6 -34 -13 -15 -9 22 -27 11 -36
-22 -6 -20 -5 -22 4 -10 9 11 13 12 17 3 3 -8 12 -5 27 11 16 18 32 24 59 23
28 -1 36 -5 32 -15 -3 -7 -5 -17 -5 -20 0 -4 -4 -1 -9 7 -5 7 -11 9 -14 4 -3
-5 -2 -15 2 -22 14 -21 44 17 39 50 -3 15 -1 26 4 23 4 -3 8 -17 8 -32 1 -23
2 -25 11 -9 5 9 7 22 4 27 -3 6 1 20 9 32 9 12 16 18 16 12 0 -5 -5 -15 -11
-21 -8 -8 -6 -19 5 -39 8 -16 16 -24 16 -19 1 6 5 1 10 -10 7 -17 9 -17 9 -2
1 19 21 24 21 5 0 -6 2 -9 5 -6 10 10 -8 39 -21 34 -9 -3 -11 0 -7 12 6 15 5
15 -10 3 -14 -11 -17 -11 -17 0 0 8 5 21 10 29 8 13 10 13 10 1 0 -11 4 -9 14
4 12 17 12 22 0 39 -17 24 -19 45 -3 29 8 -8 20 -8 40 -1 16 5 36 7 44 4 18
-6 19 -1 5 25 -7 12 -7 19 -1 19 12 0 24 -36 17 -49 -4 -5 -17 -8 -30 -7 -21
3 -23 1 -13 -16 7 -10 13 -14 15 -9 2 6 10 7 18 4 8 -3 14 -2 13 3 -4 16 13
44 22 38 5 -3 7 -10 4 -15 -4 -5 5 -9 18 -9 14 0 30 -7 37 -15 12 -14 25 -13
25 3 1 4 7 18 14 31 11 21 11 23 -1 18 -10 -3 -14 1 -13 16 1 11 8 23 16 25
11 3 11 1 -1 -7 -11 -8 -11 -11 -2 -12 22 -3 27 -4 40 -12 17 -11 15 -38 -2
-31 -22 8 -44 -32 -40 -75 3 -30 -2 -43 -21 -61 -28 -26 -29 -29 -16 -49 7
-11 16 -10 50 5 22 10 41 21 41 26 0 4 4 8 8 8 5 0 9 -7 9 -15 0 -8 -4 -12 -8
-10 -3 3 -12 -2 -19 -10 -7 -8 -17 -12 -23 -8 -6 4 -8 0 -4 -10 3 -8 0 -18 -8
-21 -8 -3 -12 0 -9 7 5 13 -43 17 -61 5 -6 -4 -17 -3 -25 3 -15 8 -11 11 19
13 15 1 24 46 9 46 -4 0 -8 -3 -8 -8 0 -4 -9 -13 -20 -20 -17 -11 -20 -10 -20
8 0 12 5 17 13 14 19 -7 39 20 31 41 -4 9 -16 21 -28 25 -21 9 -21 9 1 9 12 1
27 -7 32 -16 10 -17 10 -17 11 0 0 9 4 17 10 17 5 0 7 -7 4 -15 -4 -9 0 -15 9
-15 10 0 14 9 13 25 -1 26 -15 32 -32 15 -15 -15 -44 -1 -44 21 0 10 -5 19
-11 19 -6 0 -9 -7 -5 -15 4 -12 0 -14 -22 -9 -26 5 -26 5 -8 -10 11 -9 16 -16
12 -16 -5 0 -3 -6 3 -14 7 -9 8 -17 2 -20 -5 -3 -12 0 -15 6 -3 7 -4 4 -3 -6
1 -10 -4 -21 -11 -23 -8 -3 -10 1 -5 14 6 16 5 16 -10 5 -9 -8 -21 -11 -26 -7
-7 3 -8 0 -5 -9 3 -9 10 -13 15 -10 21 13 29 -9 13 -34 -13 -21 -14 -24 -2
-15 8 7 19 9 23 5 5 -4 6 0 2 9 -6 17 25 59 44 59 6 0 7 6 3 13 -4 6 -3 8 1 4
17 -15 13 -37 -6 -37 -10 0 -20 -4 -20 -10 -1 -5 -2 -16 -3 -22 -1 -7 7 -22
16 -32 29 -32 23 -49 -7 -20 -9 9 -18 14 -21 11 -3 -3 6 -16 20 -30 20 -20 22
-26 11 -31 -16 -6 -10 -36 7 -36 5 0 6 6 2 13 -6 9 -5 9 7 0 8 -6 25 -13 39
-15 14 -2 24 -9 23 -16 -2 -6 5 -11 15 -10 43 3 73 -3 66 -13 -6 -10 10 -8 54
8 8 4 10 -1 6 -13 -6 -17 -5 -17 10 1 10 11 15 15 12 8 -4 -6 -2 -15 4 -18 6
-4 9 -1 8 6 -2 6 3 14 10 16 6 3 12 0 12 -7 0 -6 5 -8 10 -5 6 4 18 1 27 -7
12 -9 15 -9 9 0 -10 16 35 17 52 0 8 -8 12 -8 12 -1 0 6 11 10 24 9 13 0 22
-4 19 -8 -2 -5 1 -8 8 -8 7 0 9 -3 6 -7 -4 -3 7 -15 25 -26 l32 -19 17 24 18
23 -5 -33 c-5 -31 -4 -33 15 -22 14 7 21 7 21 0 0 -5 -7 -10 -15 -10 -8 0 -15
-6 -15 -12 -1 -9 -4 -8 -13 2 -14 17 -63 28 -53 12 4 -6 2 -14 -4 -17 -6 -4
-9 -3 -8 2 4 11 -13 14 -35 7 -9 -3 -15 -9 -12 -14 3 -5 1 -11 -5 -15 -6 -3
-10 3 -10 15 0 16 -4 20 -15 16 -8 -3 -26 -1 -39 4 -17 6 -28 4 -41 -8 -10 -9
-15 -12 -11 -6 9 17 -22 26 -46 13 -11 -6 -18 -7 -15 -2 4 6 -13 10 -38 10
-37 0 -43 -3 -35 -17 6 -12 4 -16 -11 -16 -10 0 -19 4 -19 9 0 5 -7 1 -16 -7
-17 -18 -49 -22 -39 -6 4 6 10 8 15 5 4 -3 11 2 14 10 4 13 2 13 -14 5 -11 -6
-32 -12 -47 -14 -15 -2 -35 -5 -43 -7 -8 -2 -14 2 -12 9 2 10 -2 10 -17 3 -10
-6 -21 -7 -25 -4 -3 3 -6 1 -6 -5 0 -15 17 -24 23 -12 3 6 4 5 3 -1 -2 -12
-53 -20 -69 -12 -4 3 -3 11 3 18 9 11 6 13 -13 11 -13 -2 -29 -6 -35 -10 -7
-4 -12 -3 -12 3 0 5 6 12 13 14 6 3 -4 3 -23 0 -19 -3 -39 -11 -43 -17 -6 -8
-10 -7 -14 2 -2 6 -9 10 -14 6 -5 -3 -9 0 -9 5 0 6 -4 11 -9 11 -5 0 6 -28 25
-62 38 -71 73 -174 75 -222 1 -17 3 -23 6 -13 7 25 18 21 21 -8 1 -18 -2 -23
-13 -19 -10 4 -15 0 -15 -12 0 -16 2 -17 10 -4 9 13 10 13 10 0 0 -13 1 -13
10 0 9 13 11 13 20 0 7 -11 10 -11 10 -2 0 7 5 10 10 7 6 -3 10 0 10 7 1 7 7
2 15 -12 8 -14 14 -19 15 -12 0 8 5 10 13 6 7 -5 6 0 -3 11 -12 15 -12 17 -1
10 11 -6 13 -4 8 8 -7 18 19 32 29 15 4 -7 2 -14 -4 -16 -7 -2 -12 -8 -12 -13
0 -6 5 -7 10 -4 6 3 10 2 10 -4 0 -5 -5 -12 -10 -14 -6 -3 -5 -4 2 -3 7 1 15
13 16 26 4 22 4 22 23 -6 16 -25 19 -26 19 -9 0 12 -6 27 -12 34 -11 10 -10
11 5 6 9 -4 17 -11 17 -16 0 -5 9 -9 19 -9 22 0 78 47 73 62 -1 5 2 6 8 3 8
-5 6 -13 -6 -26 -9 -10 -14 -19 -9 -19 4 0 3 -6 -3 -13 -8 -9 -4 -12 14 -12
27 0 30 5 13 22 -9 9 -7 12 8 10 12 0 19 -6 16 -13 -2 -7 0 -15 6 -19 6 -3 11
-1 11 5 0 6 5 8 10 5 14 -9 13 8 -2 23 -7 7 -8 12 -2 13 5 0 19 2 32 3 13 2
22 -3 22 -11 0 -8 5 -11 12 -7 8 5 9 2 5 -9 -3 -9 -2 -19 3 -22 6 -4 10 0 10
8 0 8 9 17 20 20 15 4 18 10 13 24 -6 16 -5 17 11 3 10 -8 14 -16 8 -18 -5 -1
-8 -12 -5 -22 3 -11 0 -20 -6 -20 -6 0 -8 8 -4 18 6 15 5 15 -11 3 -16 -13
-16 -15 -1 -24 12 -6 22 -4 36 9 12 11 19 13 19 5 0 -7 4 -9 10 -6 5 3 7 0 4
-9 -3 -8 -12 -12 -20 -9 -8 3 -14 0 -14 -7 0 -6 -4 -9 -9 -6 -5 4 -7 -3 -4
-14 5 -19 7 -19 18 -4 11 15 12 15 18 1 4 -12 -3 -19 -28 -27 -19 -6 -37 -16
-40 -21 -4 -5 2 -6 12 -2 16 6 16 5 4 -10 -11 -14 -16 -15 -29 -5 -13 10 -14
10 -8 0 4 -7 2 -12 -4 -12 -6 0 -18 -6 -26 -14 -12 -13 -11 -16 7 -21 11 -4
23 -4 26 -1 4 3 13 0 21 -7 13 -9 14 -9 8 1 -5 8 0 12 13 12 11 0 19 -6 17
-12 -1 -7 -1 -10 1 -5 3 4 9 5 14 2 5 -4 6 1 3 9 -4 11 0 13 15 9 11 -3 18
-10 14 -16 -3 -6 -1 -7 6 -3 6 4 19 2 27 -5 12 -10 13 -9 8 5 -3 9 -1 16 5 16
6 0 11 -6 11 -12 1 -7 7 -2 16 12 14 25 14 25 10 -10 l-5 -35 17 23 c10 13 21
20 25 15 4 -4 19 -9 33 -11 19 -2 24 1 18 10 -4 7 2 4 14 -6 12 -11 22 -14 22
-8 0 6 -5 12 -12 14 -8 3 -8 9 1 24 12 19 12 19 7 -1 l-6 -20 16 20 c15 20 16
20 29 1 12 -16 14 34 15 373 0 306 -3 391 -13 391 -9 0 -9 2 1 8 14 10 16 172
1 172 -13 0 -20 -18 -9 -23 6 -3 5 -4 -2 -3 -7 1 -14 13 -16 25 -3 19 0 22 17
16 20 -6 21 -3 18 69 -2 41 -7 79 -11 83 -5 4 -6 -2 -3 -14 3 -13 2 -23 -3
-23 -4 0 -18 -11 -31 -24 -22 -22 -25 -22 -25 -6 0 10 5 16 10 13 5 -4 7 3 4
15 -4 12 -2 22 3 22 5 0 9 -4 9 -10 0 -5 5 -10 10 -10 6 0 10 12 10 28 0 18
-3 23 -9 14 -4 -8 -19 -11 -34 -8 -30 5 -47 -10 -20 -17 13 -3 12 -5 -5 -6
-20 -1 -23 3 -19 27 2 15 2 21 0 15 -3 -7 -9 -13 -14 -13 -6 0 -7 -6 -3 -12 5
-10 4 -10 -6 -1 -11 10 -11 15 0 28 10 12 10 15 -4 15 -9 0 -15 -5 -13 -11 1
-6 -5 -13 -13 -14 -8 -2 -22 -6 -31 -10 -10 -4 -25 3 -39 18 -13 14 -30 23
-37 20 -7 -3 -13 0 -13 6 0 6 -5 11 -11 11 -5 0 -7 -4 -4 -10 3 -5 0 -10 -9
-10 -8 0 -17 -6 -19 -12 -3 -8 -6 -6 -6 5 -1 9 -6 17 -13 17 -6 0 -8 -3 -5 -7
8 -8 -11 -33 -25 -33 -6 0 -5 7 2 15 7 9 10 18 6 22 -3 3 -6 2 -6 -4 0 -6 -9
-13 -20 -16 -11 -3 -20 -1 -20 4 0 5 -13 9 -28 9 -15 0 -33 5 -39 11 -8 8 -11
6 -10 -6z"/>
<path d="M10109 743 c-1 -5 -1 -12 0 -17 1 -5 -5 -4 -13 4 -15 11 -20 7 -17
-13 1 -5 -3 -6 -9 -2 -5 3 -10 3 -10 -2 0 -4 -12 -9 -27 -10 -16 0 -21 2 -13
7 6 4 8 10 3 13 -14 9 -30 -6 -30 -26 0 -14 6 -17 21 -13 20 5 20 4 3 -9 -23
-17 -48 -9 -41 13 5 16 4 16 -8 1 -7 -9 -16 -16 -21 -17 -4 0 -11 -2 -15 -5
-4 -2 -2 -3 3 -2 6 1 19 -1 30 -5 16 -6 12 -8 -17 -12 -21 -2 -38 0 -38 4 0 4
-10 8 -22 7 -22 0 -22 -1 2 -11 14 -6 32 -10 40 -9 11 1 10 -3 -4 -14 -14 -10
-23 -12 -32 -4 -8 7 -14 7 -19 -1 -7 -11 8 -14 68 -12 27 1 35 -2 30 -11 -4
-7 4 -5 18 5 20 13 26 13 26 3 0 -8 -4 -12 -9 -9 -4 3 -8 0 -8 -5 0 -17 21
-13 37 7 13 16 14 15 9 -8 l-5 -25 19 23 c11 13 21 18 25 12 3 -5 1 -10 -4
-10 -6 0 -11 -5 -11 -11 0 -6 8 -8 18 -5 9 3 30 -1 46 -9 34 -18 36 -18 36 -4
0 5 -6 7 -12 3 -9 -5 -9 -2 1 9 7 9 16 17 19 17 3 0 3 -3 -1 -6 -10 -10 20
-34 42 -34 19 0 21 6 21 61 0 53 -2 60 -16 55 -14 -5 -15 -4 -4 9 7 8 9 15 5
15 -4 0 -2 6 4 14 16 20 3 48 -17 37 -9 -5 -26 -5 -40 0 -32 12 -41 3 -16 -17
18 -15 18 -15 -2 -5 -18 9 -23 7 -29 -12 -3 -12 -9 -17 -11 -10 -3 7 0 21 6
32 7 14 7 21 0 21 -5 0 -11 -3 -11 -7z"/>
</g>
</svg>
